<?xml version="1.0" encoding="UTF-8" standalone="no"?>
<svg width="133px" height="29px" viewBox="0 0 133 29" version="1.1" xmlns="http://www.w3.org/2000/svg" xmlns:xlink="http://www.w3.org/1999/xlink" xmlns:sketch="http://www.bohemiancoding.com/sketch/ns">
    <!-- Generator: Sketch 3.3.3 (12081) - http://www.bohemiancoding.com/sketch -->
    <title>logo_passwordless</title>
    <desc>Created with Sketch.</desc>
    <defs></defs>
    <g id="Page-1" stroke="none" stroke-width="1" fill="none" fill-rule="evenodd" sketch:type="MSPage">
        <g id="playground-tool" sketch:type="MSArtboardGroup" transform="translate(-1170.000000, -110.000000)">
            <g id="SubHeader" sketch:type="MSLayerGroup" transform="translate(0.000000, 92.000000)">
                <g id="Loogtype" transform="translate(1170.000000, 18.000000)" sketch:type="MSShapeGroup">
                    <g id="logo_passwordless">
                        <g id="Page-1">
                            <g id="logo">
                                <g id="Group">
                                    <path d="M20.5093225,23.2383117 L17.6185173,14.3636364 L25.1619795,8.89177489 L15.8395602,8.89177489 L12.9487549,0.0170995671 L22.2711743,0.0170995671 L25.1619795,8.89177489 C26.8554098,14.021645 25.1277688,19.8867965 20.5093225,23.2383117 L20.5093225,23.2383117 L20.5093225,23.2383117 Z M5.40529268,23.2383117 L5.40529268,23.2383117 L12.9487549,28.7272727 L20.4922172,23.2383117 L12.9487549,17.7493506 L5.40529268,23.2383117 L5.40529268,23.2383117 Z M0.752635689,8.87467532 L0.752635689,8.87467532 C-1.00921604,14.2952381 1.04342675,20.0406926 5.42239803,23.2212121 L5.42239803,23.2212121 L8.31320329,14.3465368 L0.752635689,8.87467532 L10.075055,8.87467532 L12.9658603,0 L3.64344095,0 L0.752635689,8.87467532 L0.752635689,8.87467532 Z" id="Shape" fill="#EB5424"></path>
                                    <g transform="translate(34.039660, 7.523810)" fill="#222228">
                                        <path d="M82.3622919,13.2350649 C81.4728134,13.4402597 80.258333,13.6454545 79.1122741,13.6454545 C76.5293653,13.6454545 74.7333029,12.2090909 74.7333029,9.16536797 C74.7333029,6.01904762 76.5293653,4.80497835 78.8385884,4.80497835 C81.2504437,4.80497835 82.5504508,6.00194805 82.5504508,9.3021645 L82.5504508,9.79805195 L77.1793689,9.79805195 C77.1793689,11.2002165 77.7438456,11.7816017 79.3346438,11.7816017 L82.3451865,11.7816017 L82.3451865,13.2350649 L82.3622919,13.2350649 L82.3622919,13.2350649 Z M80.2412277,7.96839827 C80.2412277,6.95952381 79.8649098,6.29264069 78.7872724,6.29264069 C77.7438456,6.29264069 77.2135796,6.94242424 77.2135796,8.51558442 L80.2412277,8.51558442 L80.2412277,7.96839827 L80.2412277,7.96839827 Z" id="Shape"></path>
                                        <path d="M18.0974673,11.7987013 L20.9882725,11.7987013 C21.7238028,11.7987013 22.2027528,11.6448052 22.2027528,11.1660173 C22.2027528,10.0032468 17.892203,10.5333333 17.892203,7.48961039 C17.892203,6.15584416 18.9698404,4.82207792 21.2106421,4.82207792 C22.1514368,4.82207792 23.0922314,4.99307359 23.7422349,5.16406926 L23.7422349,6.68593074 L21.0909047,6.68593074 C20.389585,6.68593074 20.0474779,6.87402597 20.0474779,7.28441558 C20.0474779,8.60108225 24.3580278,7.81450216 24.3580278,10.8582251 C24.3580278,12.3116883 23.0922314,13.6796537 20.9027457,13.6796537 C19.8764243,13.6796537 18.9185244,13.5257576 18.0974673,13.3034632 L18.0974673,11.7987013 L18.0974673,11.7987013 Z" id="Shape"></path>
                                        <path d="M25.8119831,11.7987013 L28.7027883,11.7987013 C29.4383187,11.7987013 29.9172686,11.6448052 29.9172686,11.1660173 C29.9172686,10.0032468 25.6067188,10.5333333 25.6067188,7.48961039 C25.6067188,6.15584416 26.6843563,4.82207792 28.925158,4.82207792 C29.8659526,4.82207792 30.8067472,4.99307359 31.4567507,5.16406926 L31.4567507,6.68593074 L28.8054205,6.68593074 C28.1041008,6.68593074 27.7619937,6.87402597 27.7619937,7.28441558 C27.7619937,8.60108225 32.0725436,7.81450216 32.0725436,10.8582251 C32.0725436,12.3116883 30.8067472,13.6796537 28.6172615,13.6796537 C27.5909402,13.6796537 26.6330402,13.5257576 25.8119831,13.3034632 L25.8119831,11.7987013 L25.8119831,11.7987013 Z" id="Shape"></path>
                                        <g id="Shape" transform="translate(83.987301, 4.787879)">
                                            <path d="M0.273685705,7.01082251 L3.16449097,7.01082251 C3.9000213,7.01082251 4.37897128,6.85692641 4.37897128,6.37813853 C4.37897128,5.21536797 0.0684214263,5.74545455 0.0684214263,2.7017316 C0.0684214263,1.36796537 1.14605889,0.0341991342 3.3868606,0.0341991342 C4.32765521,0.0341991342 5.26844982,0.205194805 5.91845337,0.376190476 L5.91845337,1.89805195 L3.26712311,1.89805195 C2.56580349,1.89805195 2.22369635,2.08614719 2.22369635,2.4965368 C2.22369635,3.81320346 6.53424621,3.02662338 6.53424621,6.07034632 C6.53424621,7.52380952 5.26844982,8.89177489 3.07896418,8.89177489 C2.05264279,8.89177489 1.09474282,8.73787879 0.273685705,8.51558442 L0.273685705,7.01082251 L0.273685705,7.01082251 Z"></path>
                                            <path d="M8.00530688,7.01082251 L10.8961121,7.01082251 C11.6316425,7.01082251 12.1105925,6.85692641 12.1105925,6.37813853 C12.1105925,5.21536797 7.8000426,5.74545455 7.8000426,2.7017316 C7.8000426,1.36796537 8.87768006,0.0341991342 11.1184818,0.0341991342 C12.0592764,0.0341991342 13.000071,0.205194805 13.6500745,0.376190476 L13.6500745,1.89805195 L10.9987443,1.89805195 C10.2974247,1.89805195 9.95531753,2.08614719 9.95531753,2.4965368 C9.95531753,3.81320346 14.2658674,3.02662338 14.2658674,6.07034632 C14.2658674,7.52380952 13.000071,8.89177489 10.8105854,8.89177489 C9.78426396,8.89177489 8.82636399,8.73787879 8.00530688,8.51558442 L8.00530688,7.01082251 L8.00530688,7.01082251 Z"></path>
                                        </g>
                                        <path d="M50.1186948,4.80497835 C48.8528984,4.80497835 47.7923663,5.23246753 47.0397306,6.01904762 C46.2870949,6.80562771 45.8936717,7.91709957 45.8936717,9.21666667 C45.8936717,10.5162338 46.2870949,11.6277056 47.0397306,12.4142857 C47.7923663,13.2179654 48.8700037,13.628355 50.1186948,13.628355 C51.3844911,13.628355 52.4450233,13.2008658 53.1976589,12.4142857 C53.9502946,11.6277056 54.3437178,10.5162338 54.3437178,9.21666667 C54.3437178,7.91709957 53.9502946,6.80562771 53.1976589,6.01904762 C52.4450233,5.23246753 51.3844911,4.80497835 50.1186948,4.80497835 L50.1186948,4.80497835 L50.1186948,4.80497835 Z M51.4358072,11.5080087 C51.0937001,11.9525974 50.6660662,12.1577922 50.1186948,12.1577922 C49.5713233,12.1577922 49.1436894,11.9525974 48.8015823,11.5080087 C48.3910537,10.9779221 48.1515788,10.1742424 48.1515788,9.23376623 C48.1515788,8.29329004 48.3739484,7.48961039 48.8015823,6.95952381 C49.1436894,6.51493506 49.5713233,6.30974026 50.1186948,6.30974026 C50.6660662,6.30974026 51.0937001,6.51493506 51.4358072,6.95952381 C51.8463358,7.48961039 52.0858108,8.29329004 52.0858108,9.23376623 C52.0858108,10.1742424 51.8634411,10.9779221 51.4358072,11.5080087 L51.4358072,11.5080087 L51.4358072,11.5080087 Z" id="Shape"></path>
                                        <rect id="Rectangle-path" x="71.0043351" y="0.188095238" width="2.15527493" height="13.2863636"></rect>
                                        <path d="M66.5398371,0.188095238 L66.5398371,4.94177489 C66.1806246,4.85627706 65.7872014,4.80497835 65.3766728,4.80497835 C64.1108764,4.80497835 63.0503443,5.23246753 62.2977086,6.01904762 C61.5450729,6.80562771 61.1516497,7.91709957 61.1516497,9.21666667 C61.1516497,10.5162338 61.5450729,11.6277056 62.2977086,12.4142857 C63.0503443,13.2179654 64.1279818,13.628355 65.3766728,13.628355 C66.3174674,13.628355 68.0108977,13.388961 68.695112,12.9443723 L68.695112,12.3971861 L68.695112,11.6619048 L68.695112,0.170995671 L66.5398371,0.170995671 L66.5398371,0.188095238 L66.5398371,0.188095238 Z M65.3766728,11.6961039 C64.4358782,11.6961039 63.4095568,11.2002165 63.4095568,9.23376623 C63.4095568,7.26731602 64.4358782,6.77142857 65.3766728,6.77142857 L66.5398371,6.77142857 L66.5398371,11.6790043 L65.3766728,11.6790043 L65.3766728,11.6961039 L65.3766728,11.6961039 Z" id="Shape"></path>
                                        <path d="M7.18424976,1.23116883 C6.43161407,0.427489177 5.35397661,0.0170995671 4.10528558,0.0170995671 C3.16449097,0.0170995671 1.86448387,0.0683982684 0,0.341991342 L0,1.2482684 L0,1.98354978 L0,13.4744589 L2.15527493,13.4744589 L2.15527493,8.75497835 C2.92501597,8.82337662 3.67765166,8.85757576 4.10528558,8.85757576 C5.37108196,8.85757576 6.43161407,8.43008658 7.18424976,7.64350649 C7.93688545,6.85692641 8.33030865,5.74545455 8.33030865,4.44588745 C8.33030865,3.14632035 7.93688545,2.03484848 7.18424976,1.23116883 L7.18424976,1.23116883 L7.18424976,1.23116883 Z M4.10528558,6.89112554 L2.15527493,6.89112554 L2.15527493,1.98354978 L4.10528558,1.98354978 C5.04608019,1.98354978 6.07240158,2.47943723 6.07240158,4.44588745 C6.07240158,6.41233766 5.04608019,6.89112554 4.10528558,6.89112554 L4.10528558,6.89112554 L4.10528558,6.89112554 Z" id="Shape"></path>
                                        <path d="M60.5529623,4.99307359 C59.6121677,4.99307359 58.7226891,5.3008658 58.0042641,5.79675325 L58.0042641,5.79675325 L57.8674213,4.99307359 L55.8660946,4.99307359 L55.8660946,13.4915584 L58.0213695,13.4915584 L58.0213695,6.68593074 L60.5529623,6.68593074 L60.5529623,4.99307359 L60.5529623,4.99307359 Z" id="Shape"></path>
                                        <path d="M38.8120541,5.95064935 C38.1962612,6.05324675 37.7173112,6.5491342 37.563363,7.14761905 L36.3488827,12.0893939 L35.2883506,4.97597403 L33.1159703,4.97597403 L34.5186096,12.4142857 C34.6554524,13.1324675 35.2712453,13.6454545 35.9896702,13.6454545 L36.5199363,13.6454545 C37.2041505,13.6454545 37.8199434,13.1666667 37.9738916,12.4997835 L39.0515291,8.15649351 L40.1291665,12.4997835 C40.3002201,13.1666667 40.8989076,13.6454545 41.5831218,13.6454545 L42.1133879,13.6454545 C42.8318129,13.6454545 43.4647111,13.1324675 43.5844485,12.4142857 L44.9870878,4.97597403 L42.8147075,4.97597403 L41.7541754,12.0893939 L40.5225897,7.07922078 C40.3515362,6.32683983 39.6160058,5.83095238 38.8120541,5.95064935 L38.8120541,5.95064935 L38.8120541,5.95064935 Z" id="Shape"></path>
                                        <path d="M15.2921888,5.52316017 C14.6763959,5.06147186 13.8040228,4.82207792 12.6408585,4.82207792 C10.9132175,4.82207792 9.61321039,5.33506494 9.61321039,5.33506494 L9.61321039,6.68593074 L12.6237532,6.68593074 C13.1027031,6.68593074 13.4619156,6.77142857 13.7013906,6.92532468 C13.9408656,7.07922078 14.0434977,7.42121212 14.0434977,7.9 L14.0434977,8.49848485 L13.0171764,8.49848485 C11.6145371,8.49848485 10.6053211,8.72077922 9.98952824,9.1482684 C9.3737354,9.57575758 9.06583898,10.2255411 9.06583898,11.0805195 L9.06583898,11.1489177 C9.06583898,11.6619048 9.15136577,12.0722944 9.32241933,12.3971861 C9.4934729,12.7220779 9.69873718,12.9785714 9.97242288,13.1666667 C10.2290032,13.3547619 10.5368996,13.4915584 10.8619014,13.5599567 C11.2040086,13.628355 11.5290103,13.6625541 11.8711175,13.6625541 C12.2645407,13.6625541 12.6408585,13.6112554 13.0171764,13.4915584 C13.3934942,13.3718615 13.769812,13.2179654 14.1461299,13.0127706 L14.248762,13.5599567 L14.4711317,13.5599567 L15.8566655,13.5599567 L16.1816673,13.5599567 L16.1816673,13.2521645 L16.1816673,12.995671 L16.1816673,7.66060606 C16.1987727,6.7030303 15.8908763,5.98484848 15.2921888,5.52316017 L15.2921888,5.52316017 L15.2921888,5.52316017 Z M14.0606031,11.6619048 C13.8211281,11.7816017 13.5645478,11.8841991 13.2737567,11.969697 C12.9829656,12.0551948 12.6921746,12.0893939 12.4013835,12.0893939 C11.990855,12.0893939 11.6829585,12.0209957 11.511905,11.9012987 C11.3237461,11.7816017 11.2382193,11.5251082 11.2382193,11.1660173 L11.2382193,11.097619 C11.2382193,10.8924242 11.2553246,10.704329 11.3066407,10.5504329 C11.3579568,10.3965368 11.4434835,10.2597403 11.5803264,10.1571429 C11.7171693,10.0545455 11.9053282,9.96904762 12.1276978,9.91774892 C12.3671728,9.86645022 12.6579639,9.83225108 13.0342817,9.83225108 L14.0606031,9.83225108 L14.0606031,11.6619048 L14.0606031,11.6619048 Z" id="Shape"></path>
                                    </g>
                                </g>
                            </g>
                        </g>
                    </g>
                </g>
            </g>
        </g>
    </g>
</svg>