<?xml version="1.0" encoding="UTF-8" standalone="no"?>
<svg width="774px" height="168px" viewBox="0 0 774 168" version="1.1" xmlns="http://www.w3.org/2000/svg" xmlns:xlink="http://www.w3.org/1999/xlink" xmlns:sketch="http://www.bohemiancoding.com/sketch/ns">
    <!-- Generator: Sketch 3.3.3 (12072) - http://www.bohemiancoding.com/sketch -->
    <title>logo_passwordless</title>
    <desc>Created with Sketch.</desc>
    <defs></defs>
    <g id="Page-1" stroke="none" stroke-width="1" fill="none" fill-rule="evenodd" sketch:type="MSPage">
        <g id="logo_passwordless" sketch:type="MSLayerGroup">
            <g id="Page-1" sketch:type="MSShapeGroup">
                <g id="logo">
                    <g id="Group">
                        <path d="M119.9,135.9 L103,84 L147.1,52 L92.6,52 L75.7,0.1 L130.2,0.1 L147.1,52 C157,82 146.9,116.3 119.9,135.9 L119.9,135.9 L119.9,135.9 Z M31.6,135.9 L31.6,135.9 L75.7,168 L119.8,135.9 L75.7,103.8 L31.6,135.9 L31.6,135.9 Z M4.4,51.9 L4.4,51.9 C-5.9,83.6 6.1,117.2 31.7,135.8 L31.7,135.8 L48.6,83.9 L4.4,51.9 L58.9,51.9 L75.8,0 L21.3,0 L4.4,51.9 L4.4,51.9 Z" id="Shape" fill="#EB5424"></path>
                        <g transform="translate(199.000000, 44.000000)" fill="#222228">
                            <path d="M481.5,77.4 C476.3,78.6 469.2,79.8 462.5,79.8 C447.4,79.8 436.9,71.4 436.9,53.6 C436.9,35.2 447.4,28.1 460.9,28.1 C475,28.1 482.6,35.1 482.6,54.4 L482.6,57.3 L451.2,57.3 C451.2,65.5 454.5,68.9 463.8,68.9 L481.4,68.9 L481.4,77.4 L481.5,77.4 L481.5,77.4 Z M469.1,46.6 C469.1,40.7 466.9,36.8 460.6,36.8 C454.5,36.8 451.4,40.6 451.4,49.8 L469.1,49.8 L469.1,46.6 L469.1,46.6 Z" id="Shape"></path>
                            <path d="M105.8,69 L122.7,69 C127,69 129.8,68.1 129.8,65.3 C129.8,58.5 104.6,61.6 104.6,43.8 C104.6,36 110.9,28.2 124,28.2 C129.5,28.2 135,29.2 138.8,30.2 L138.8,39.1 L123.3,39.1 C119.2,39.1 117.2,40.2 117.2,42.6 C117.2,50.3 142.4,45.7 142.4,63.5 C142.4,72 135,80 122.2,80 C116.2,80 110.6,79.1 105.8,77.8 L105.8,69 L105.8,69 Z" id="Shape"></path>
                            <path d="M150.9,69 L167.8,69 C172.1,69 174.9,68.1 174.9,65.3 C174.9,58.5 149.7,61.6 149.7,43.8 C149.7,36 156,28.2 169.1,28.2 C174.6,28.2 180.1,29.2 183.9,30.2 L183.9,39.1 L168.4,39.1 C164.3,39.1 162.3,40.2 162.3,42.6 C162.3,50.3 187.5,45.7 187.5,63.5 C187.5,72 180.1,80 167.3,80 C161.3,80 155.7,79.1 150.9,77.8 L150.9,69 L150.9,69 Z" id="Shape"></path>
                            <g id="Shape" transform="translate(491.000000, 28.000000)">
                                <path d="M1.6,41 L18.5,41 C22.8,41 25.6,40.1 25.6,37.3 C25.6,30.5 0.4,33.6 0.4,15.8 C0.4,8 6.7,0.2 19.8,0.2 C25.3,0.2 30.8,1.2 34.6,2.2 L34.6,11.1 L19.1,11.1 C15,11.1 13,12.2 13,14.6 C13,22.3 38.2,17.7 38.2,35.5 C38.2,44 30.8,52 18,52 C12,52 6.4,51.1 1.6,49.8 L1.6,41 L1.6,41 Z"></path>
                                <path d="M46.8,41 L63.7,41 C68,41 70.8,40.1 70.8,37.3 C70.8,30.5 45.6,33.6 45.6,15.8 C45.6,8 51.9,0.2 65,0.2 C70.5,0.2 76,1.2 79.8,2.2 L79.8,11.1 L64.3,11.1 C60.2,11.1 58.2,12.2 58.2,14.6 C58.2,22.3 83.4,17.7 83.4,35.5 C83.4,44 76,52 63.2,52 C57.2,52 51.6,51.1 46.8,49.8 L46.8,41 L46.8,41 Z"></path>
                            </g>
                            <path d="M293,28.1 C285.6,28.1 279.4,30.6 275,35.2 C270.6,39.8 268.3,46.3 268.3,53.9 C268.3,61.5 270.6,68 275,72.6 C279.4,77.3 285.7,79.7 293,79.7 C300.4,79.7 306.6,77.2 311,72.6 C315.4,68 317.7,61.5 317.7,53.9 C317.7,46.3 315.4,39.8 311,35.2 C306.6,30.6 300.4,28.1 293,28.1 L293,28.1 L293,28.1 Z M300.7,67.3 C298.7,69.9 296.2,71.1 293,71.1 C289.8,71.1 287.3,69.9 285.3,67.3 C282.9,64.2 281.5,59.5 281.5,54 C281.5,48.5 282.8,43.8 285.3,40.7 C287.3,38.1 289.8,36.9 293,36.9 C296.2,36.9 298.7,38.1 300.7,40.7 C303.1,43.8 304.5,48.5 304.5,54 C304.5,59.5 303.2,64.2 300.7,67.3 L300.7,67.3 L300.7,67.3 Z" id="Shape"></path>
                            <rect id="Rectangle-path" x="415.1" y="1.1" width="12.6" height="77.7"></rect>
                            <path d="M389,1.1 L389,28.9 C386.9,28.4 384.6,28.1 382.2,28.1 C374.8,28.1 368.6,30.6 364.2,35.2 C359.8,39.8 357.5,46.3 357.5,53.9 C357.5,61.5 359.8,68 364.2,72.6 C368.6,77.3 374.9,79.7 382.2,79.7 C387.7,79.7 397.6,78.3 401.6,75.7 L401.6,72.5 L401.6,68.2 L401.6,1 L389,1 L389,1.1 L389,1.1 Z M382.2,68.4 C376.7,68.4 370.7,65.5 370.7,54 C370.7,42.5 376.7,39.6 382.2,39.6 L389,39.6 L389,68.3 L382.2,68.3 L382.2,68.4 L382.2,68.4 Z" id="Shape"></path>
                            <path d="M42,7.2 C37.6,2.5 31.3,0.1 24,0.1 C18.5,0.1 10.9,0.4 0,2 L0,7.3 L0,11.6 L0,78.8 L12.6,78.8 L12.6,51.2 C17.1,51.6 21.5,51.8 24,51.8 C31.4,51.8 37.6,49.3 42,44.7 C46.4,40.1 48.7,33.6 48.7,26 C48.7,18.4 46.4,11.9 42,7.2 L42,7.2 L42,7.2 Z M24,40.3 L12.6,40.3 L12.6,11.6 L24,11.6 C29.5,11.6 35.5,14.5 35.5,26 C35.5,37.5 29.5,40.3 24,40.3 L24,40.3 L24,40.3 Z" id="Shape"></path>
                            <path d="M354,29.2 C348.5,29.2 343.3,31 339.1,33.9 L339.1,33.9 L338.3,29.2 L326.6,29.2 L326.6,78.9 L339.2,78.9 L339.2,39.1 L354,39.1 L354,29.2 L354,29.2 Z" id="Shape"></path>
                            <path d="M226.9,34.8 C223.3,35.4 220.5,38.3 219.6,41.8 L212.5,70.7 L206.3,29.1 L193.6,29.1 L201.8,72.6 C202.6,76.8 206.2,79.8 210.4,79.8 L213.5,79.8 C217.5,79.8 221.1,77 222,73.1 L228.3,47.7 L234.6,73.1 C235.6,77 239.1,79.8 243.1,79.8 L246.2,79.8 C250.4,79.8 254.1,76.8 254.8,72.6 L263,29.1 L250.3,29.1 L244.1,70.7 L236.9,41.4 C235.9,37 231.6,34.1 226.9,34.8 L226.9,34.8 L226.9,34.8 Z" id="Shape"></path>
                            <path d="M89.4,32.3 C85.8,29.6 80.7,28.2 73.9,28.2 C63.8,28.2 56.2,31.2 56.2,31.2 L56.2,39.1 L73.8,39.1 C76.6,39.1 78.7,39.6 80.1,40.5 C81.5,41.4 82.1,43.4 82.1,46.2 L82.1,49.7 L76.1,49.7 C67.9,49.7 62,51 58.4,53.5 C54.8,56 53,59.8 53,64.8 L53,65.2 C53,68.2 53.5,70.6 54.5,72.5 C55.5,74.4 56.7,75.9 58.3,77 C59.8,78.1 61.6,78.9 63.5,79.3 C65.5,79.7 67.4,79.9 69.4,79.9 C71.7,79.9 73.9,79.6 76.1,78.9 C78.3,78.2 80.5,77.3 82.7,76.1 L83.3,79.3 L84.6,79.3 L92.7,79.3 L94.6,79.3 L94.6,77.5 L94.6,76 L94.6,44.8 C94.7,39.2 92.9,35 89.4,32.3 L89.4,32.3 L89.4,32.3 Z M82.2,68.2 C80.8,68.9 79.3,69.5 77.6,70 C75.9,70.5 74.2,70.7 72.5,70.7 C70.1,70.7 68.3,70.3 67.3,69.6 C66.2,68.9 65.7,67.4 65.7,65.3 L65.7,64.9 C65.7,63.7 65.8,62.6 66.1,61.7 C66.4,60.8 66.9,60 67.7,59.4 C68.5,58.8 69.6,58.3 70.9,58 C72.3,57.7 74,57.5 76.2,57.5 L82.2,57.5 L82.2,68.2 L82.2,68.2 Z" id="Shape"></path>
                        </g>
                    </g>
                </g>
            </g>
        </g>
    </g>
</svg>