<?xml version="1.0" encoding="UTF-8" standalone="no"?>
<svg width="34px" height="38px" viewBox="0 0 34 38" version="1.1" xmlns="http://www.w3.org/2000/svg" xmlns:xlink="http://www.w3.org/1999/xlink" xmlns:sketch="http://www.bohemiancoding.com/sketch/ns">
    <!-- Generator: Sketch 3.3.3 (12081) - http://www.bohemiancoding.com/sketch -->
    <title>Shield Copy</title>
    <desc>Created with Sketch.</desc>
    <defs></defs>
    <g id="Page-1" stroke="none" stroke-width="1" fill="none" fill-rule="evenodd" sketch:type="MSPage">
        <g id="passwordless-playground" sketch:type="MSArtboardGroup" transform="translate(-239.000000, -195.000000)" fill="#EB5424">
            <g id="Passwordless-+-Playground-+-Shield-Copy" sketch:type="MSLayerGroup" transform="translate(239.000000, 194.000000)">
                <path d="M26.9928559,31.7411304 L23.1769845,19.999434 L33.1657355,12.7446395 L20.8186175,12.7446395 L17.0025197,1.00339591 L17.0013874,1.00022639 L29.350317,1.00022639 L33.1673207,12.7435076 L33.1675472,12.7432812 L33.1707176,12.74147 C35.3873199,19.5541171 33.1043645,27.3026768 26.9928559,31.7411304 L26.9928559,31.7411304 L26.9928559,31.7411304 Z M7.01127767,31.7411304 L7.00810722,31.7433944 L16.9993492,39 L26.9928559,31.7413568 L17.0025197,24.4845248 L7.01127767,31.7411304 L7.01127767,31.7411304 Z M0.835907002,12.7416964 L0.835907002,12.7416964 C-1.49754928,19.9231393 1.21115322,27.5326931 7.00923952,31.7424888 L7.01014537,31.7388665 L10.8264696,19.9978493 L0.839983304,12.7444131 L13.1841573,12.7444131 L17.0004815,1.00316952 L17.0013874,1 L4.65177835,1 L0.835907002,12.7416964 L0.835907002,12.7416964 Z" id="Shield-Copy" sketch:type="MSShapeGroup"></path>
            </g>
        </g>
    </g>
</svg>