<?xml version="1.0" encoding="UTF-8" standalone="no"?>
<svg width="272px" height="339px" viewBox="0 0 272 339" version="1.1" xmlns="http://www.w3.org/2000/svg" xmlns:xlink="http://www.w3.org/1999/xlink" xmlns:sketch="http://www.bohemiancoding.com/sketch/ns">
    <!-- Generator: Sketch 3.3.3 (12081) - http://www.bohemiancoding.com/sketch -->
    <title>Auth0</title>
    <desc>Created with Sketch.</desc>
    <defs>
        <linearGradient x1="50%" y1="0%" x2="50%" y2="100%" id="linearGradient-1">
            <stop stop-color="#ECEFF0" offset="0%"></stop>
            <stop stop-color="#EDEFF0" offset="100%"></stop>
        </linearGradient>
        <filter x="-50%" y="-50%" width="200%" height="200%" filterUnits="objectBoundingBox" id="filter-2">
            <feOffset dx="0" dy="0" in="SourceAlpha" result="shadowOffsetInner1"></feOffset>
            <feGaussianBlur stdDeviation="2" in="shadowOffsetInner1" result="shadowBlurInner1"></feGaussianBlur>
            <feComposite in="shadowBlurInner1" in2="SourceAlpha" operator="arithmetic" k2="-1" k3="1" result="shadowInnerInner1"></feComposite>
            <feColorMatrix values="0 0 0 0 0   0 0 0 0 0   0 0 0 0 0  0 0 0 0.140000002 0" in="shadowInnerInner1" type="matrix" result="shadowMatrixInner1"></feColorMatrix>
            <feMerge>
                <feMergeNode in="SourceGraphic"></feMergeNode>
                <feMergeNode in="shadowMatrixInner1"></feMergeNode>
            </feMerge>
        </filter>
        <rect id="path-3" x="2.09230769" y="0.455941554" width="267.815385" height="553.909774" rx="41.8212602"></rect>
        <rect id="path-4" x="6.27692308" y="4.63639268" width="259.446154" height="545.548872" rx="35.7571775"></rect>
        <filter x="-50%" y="-50%" width="200%" height="200%" filterUnits="objectBoundingBox" id="filter-5">
            <feOffset dx="0" dy="2" in="SourceAlpha" result="shadowOffsetInner1"></feOffset>
            <feGaussianBlur stdDeviation="1" in="shadowOffsetInner1" result="shadowBlurInner1"></feGaussianBlur>
            <feComposite in="shadowBlurInner1" in2="SourceAlpha" operator="arithmetic" k2="-1" k3="1" result="shadowInnerInner1"></feComposite>
            <feColorMatrix values="0 0 0 0 1   0 0 0 0 1   0 0 0 0 1  0 0 0 0.7 0" in="shadowInnerInner1" type="matrix" result="shadowMatrixInner1"></feColorMatrix>
            <feMerge>
                <feMergeNode in="SourceGraphic"></feMergeNode>
                <feMergeNode in="shadowMatrixInner1"></feMergeNode>
            </feMerge>
        </filter>
        <linearGradient x1="50%" y1="100%" x2="50%" y2="0%" id="linearGradient-6">
            <stop stop-color="#E0E2E3" stop-opacity="0" offset="0%"></stop>
            <stop stop-color="#E6E9EB" offset="100%"></stop>
        </linearGradient>
        <filter x="-50%" y="-50%" width="200%" height="200%" filterUnits="objectBoundingBox" id="filter-7">
            <feOffset dx="0" dy="2" in="SourceAlpha" result="shadowOffsetInner1"></feOffset>
            <feGaussianBlur stdDeviation="0" in="shadowOffsetInner1" result="shadowBlurInner1"></feGaussianBlur>
            <feComposite in="shadowBlurInner1" in2="SourceAlpha" operator="arithmetic" k2="-1" k3="1" result="shadowInnerInner1"></feComposite>
            <feColorMatrix values="0 0 0 0 0   0 0 0 0 0   0 0 0 0 0  0 0 0 0.007 0" in="shadowInnerInner1" type="matrix" result="shadowMatrixInner1"></feColorMatrix>
            <feMerge>
                <feMergeNode in="SourceGraphic"></feMergeNode>
                <feMergeNode in="shadowMatrixInner1"></feMergeNode>
            </feMerge>
        </filter>
        <rect id="path-8" x="0.155596325" y="0" width="235.831656" height="380"></rect>
        <rect id="path-10" x="0" y="0" width="274.584708" height="120"></rect>
        <filter x="-50%" y="-50%" width="200%" height="200%" filterUnits="objectBoundingBox" id="filter-12">
            <feGaussianBlur stdDeviation="30.0867417" in="SourceGraphic" result="blur"></feGaussianBlur>
        </filter>
        <rect id="path-13" x="0" y="0" width="195.726871" height="34.1622859" rx="2.94408002"></rect>
    </defs>
    <g id="Page-1" stroke="none" stroke-width="1" fill="none" fill-rule="evenodd" sketch:type="MSPage">
        <g id="passwordless-playground" sketch:type="MSArtboardGroup" transform="translate(-894.000000, -102.000000)">
            <g id="Header" sketch:type="MSLayerGroup" transform="translate(0.000000, -318.000000)">
                <g id="Auth0" transform="translate(894.000000, 420.000000)">
                    <g id="iPhone">
                        <path d="M2.09230769,71.5236107 L2.09230769,71.5236107 C1.90483692,71.5236107 2.09230769,71.6707626 2.09230769,71.5236107 L2.09230769,94.5160919 C2.09230769,94.36894 1.90483692,94.5160919 2.09230769,94.5160919 L2.09230769,94.5160919 C0.561993846,94.5160919 0,94.0749648 0,94.5160919 L0,71.5236107 C0,71.9647379 0.561993846,71.5236107 2.09230769,71.5236107 L2.09230769,71.5236107 Z" id="Shape" fill="#DEDEDE" sketch:type="MSShapeGroup"></path>
                        <path d="M269.907692,117.508573 L272,117.508573 C271.648754,117.508573 272,117.937149 272,117.508573 L272,159.313084 C272,158.884508 271.648754,159.313084 272,159.313084 L269.907692,159.313084 C270.024862,159.313084 269.907692,159.170119 269.907692,159.313084 L269.907692,117.508573 C269.907692,117.651538 270.024862,117.508573 269.907692,117.508573 L269.907692,117.508573 Z" id="Shape" fill="#DEDEDE" sketch:type="MSShapeGroup"></path>
                        <path d="M0,169.764212 L2.09230769,169.764212 C1.98815726,169.764212 2.09230769,169.907177 2.09230769,169.764212 L2.09230769,211.568724 C2.09230769,211.425758 1.98815726,211.568724 2.09230769,211.568724 L0,211.568724 C0.312218803,211.568724 0,211.140147 0,211.568724 L0,169.764212 C0,170.192788 0.312218803,169.764212 0,169.764212 L0,169.764212 Z" id="Shape" fill="#DEDEDE" sketch:type="MSShapeGroup"></path>
                        <path d="M0,119.598799 L2.09230769,119.598799 C1.98815726,119.598799 2.09230769,119.741764 2.09230769,119.598799 L2.09230769,161.40331 C2.09230769,161.260345 1.98815726,161.40331 2.09230769,161.40331 L0,161.40331 C0.312218803,161.40331 0,160.974734 0,161.40331 L0,119.598799 C0,120.027375 0.312218803,119.598799 0,119.598799 L0,119.598799 Z" id="Shape" fill="#DEDEDE" sketch:type="MSShapeGroup"></path>
                        <g id="base" filter="url(#filter-2)">
                            <use fill="url(#linearGradient-1)" sketch:type="MSShapeGroup" xlink:href="#path-3"></use>
                            <use fill-opacity="0.04" fill="#000000" xlink:href="#path-3"></use>
                        </g>
                        <g id="front">
                            <use fill="url(#linearGradient-1)" sketch:type="MSShapeGroup" xlink:href="#path-4"></use>
                            <use fill-opacity="0.8" fill="#FFFFFF" xlink:href="#path-4"></use>
                        </g>
                        <rect id="inner" stroke-opacity="0.1" stroke="#000000" stroke-width="1.04553151" filter="url(#filter-5)" sketch:type="MSShapeGroup" x="8.36923077" y="6.72661825" width="255.261538" height="541.368421" rx="33.8752208"></rect>
                        <path d="M115.246154,33.8995506 L154.661538,33.8995506 C155.910554,33.8995506 156.923077,34.8353744 156.923077,35.9897761 C156.923077,37.1441779 155.910554,38.0800017 154.661538,38.0800017 L115.246154,38.0800017 C113.997138,38.0800017 112.984615,37.1441779 112.984615,35.9897761 C112.984615,34.8353744 113.997138,33.8995506 115.246154,33.8995506 L115.246154,33.8995506 Z" id="earborder" fill="#E7E8E8" sketch:type="MSShapeGroup"></path>
                        <path d="M115.246154,33.8995506 L154.661538,33.8995506 C155.910554,33.8995506 156.923077,34.8353744 156.923077,35.9897761 C156.923077,37.1441779 155.910554,38.0800017 154.661538,38.0800017 L115.246154,38.0800017 C113.997138,38.0800017 112.984615,37.1441779 112.984615,35.9897761 C112.984615,34.8353744 113.997138,33.8995506 115.246154,33.8995506 L115.246154,33.8995506 Z" id="ear" fill="url(#linearGradient-6)" filter="url(#filter-7)" sketch:type="MSShapeGroup"></path>
                        <ellipse id="circle" fill="#E7E8E8" sketch:type="MSShapeGroup" cx="94.1538462" cy="35.9897761" rx="2.09230769" ry="2.09022556"></ellipse>
                        <ellipse id="circle" opacity="0.4" fill="#E7E8E8" sketch:type="MSShapeGroup" cx="136" cy="17.1777461" rx="2.09230769" ry="2.09022556"></ellipse>
                        <rect id="screen" fill="#323232" sketch:type="MSShapeGroup" x="17" y="67" width="238.523077" height="422.225564" rx="1.25463781"></rect>
                    </g>
                    <rect id="Rectangle-1841" fill="#D8D8D8" sketch:type="MSShapeGroup" x="18" y="69" width="236" height="39"></rect>
                    <g id="Lock" transform="translate(18.000000, 107.701031)">
                        <mask id="mask-9" sketch:name="Mask" fill="white">
                            <use xlink:href="#path-8"></use>
                        </mask>
                        <use id="Mask" fill="#FFFFFF" sketch:type="MSShapeGroup" xlink:href="#path-8"></use>
                        <g id="Header" mask="url(#mask-9)">
                            <g transform="translate(-20.074019, 0.000000)">
                                <mask id="mask-11" sketch:name="Mask" fill="white">
                                    <use xlink:href="#path-10"></use>
                                </mask>
                                <use id="Mask" stroke="none" fill="#F3F3F3" fill-rule="evenodd" sketch:type="MSShapeGroup" xlink:href="#path-10"></use>
                                <path d="M254.565087,305.609405 L209.672189,166.3454 L327.185011,80.2989121 L181.926514,80.2989121 L137.028287,-58.9597223 L137.014966,-58.9973148 L282.297442,-58.9973148 L327.203661,80.2854862 L327.203661,80.282801 L327.24096,80.2613196 C353.324134,161.063657 326.462994,252.966515 254.565087,305.609405 L254.565087,305.609405 L254.565087,305.609405 Z M19.4861591,305.609405 L19.4488594,305.636256 L136.993652,391.704225 L254.565087,305.61209 L137.030952,219.541436 L19.4861591,305.609405 L19.4861591,305.609405 Z M-53.1657357,80.2640048 L-53.1657357,80.2640048 C-80.6183421,165.440495 -48.7510454,255.694655 19.4621807,305.625516 L19.4728378,305.582553 L64.371064,166.326603 L-53.1177789,80.2962269 L92.1060827,80.2962269 L137.006973,-58.9624075 L137.01763,-59 L-8.27283795,-59 L-53.1657357,80.2640048 L-53.1657357,80.2640048 Z" id="Shield" stroke="none" opacity="0.1" fill="#000000" fill-rule="evenodd" filter="url(#filter-12)" sketch:type="MSShapeGroup" mask="url(#mask-11)"></path>
                                <text id="Auth0" stroke="none" fill="none" sketch:type="MSTextLayer" mask="url(#mask-11)" font-family="Avenir" font-size="18.4050218" font-weight="normal" sketch:alignment="middle">
                                    <tspan x="112.282056" y="99" fill="#4A4A4A">Auth0</tspan>
                                </text>
                                <path d="M150.138024,57.8309016 L145.312069,42.9992851 L157.944901,33.8353341 L142.329428,33.8353341 L137.503187,19.0042896 L137.501755,19.000286 L153.119519,19.000286 L157.946906,33.8339043 L157.947192,33.8336183 L157.951202,33.8313305 C160.754552,42.4367795 157.867284,52.2244339 150.138024,57.8309016 L150.138024,57.8309016 L150.138024,57.8309016 Z M124.867204,57.8309016 L124.863194,57.8337613 L137.499177,67 L150.138024,57.8311876 L137.503187,48.6646629 L124.867204,57.8309016 L124.867204,57.8309016 Z M117.057177,33.8316165 L117.057177,33.8316165 C114.106041,42.9029127 117.531753,52.5149807 124.864626,57.8326174 L124.865772,57.8280419 L129.6923,42.9972833 L117.062332,33.8350482 L132.674081,33.8350482 L137.500609,19.0040036 L137.501755,19 L121.883131,19 L117.057177,33.8316165 L117.057177,33.8316165 Z" id="Shield" stroke="none" fill="#EB5424" fill-rule="evenodd" sketch:type="MSShapeGroup" mask="url(#mask-11)"></path>
                            </g>
                        </g>
                    </g>
                    <g id="Phone-Number" transform="translate(38.636565, 321.618277)">
                        <mask id="mask-14" sketch:name="Mask" fill="white">
                            <use xlink:href="#path-13"></use>
                        </mask>
                        <use id="Mask" stroke="#EEEEEE" stroke-width="0.981360008" fill="#FFFFFF" sketch:type="MSShapeGroup" xlink:href="#path-13"></use>
                        <rect id="Rectangle" fill="#F1F1F1" sketch:type="MSShapeGroup" mask="url(#mask-14)" x="0" y="0" width="34.0394558" height="34.1622859"></rect>
                        <path d="M19.4989796,23.1994317 L14.6744898,23.1994317 C13.7863816,23.1994317 13.0663265,22.5219619 13.0663265,21.6861888 L13.0663265,19.4169865 L13.0663265,18.6604597 L13.0663265,14.1214877 L13.0663265,13.3645826 L13.0663265,12.6084341 C13.0663265,11.772661 13.7863816,11.0953804 14.6744898,11.0953804 L19.4989796,11.0953804 C20.3870878,11.0953804 21.1071429,11.772661 21.1071429,12.6084341 L21.1071429,13.3645826 L21.1071429,14.1214877 L21.1071429,18.6604597 L21.1071429,19.4169865 L21.1071429,21.6861888 C21.1071429,22.5219619 20.3868867,23.1994317 19.4989796,23.1994317 L19.4989796,23.1994317 Z M20.3028602,12.6084341 C20.3028602,12.1900747 19.9428327,11.8515289 19.4987786,11.8515289 L14.6742888,11.8515289 C14.2302347,11.8515289 13.8702071,12.1900747 13.8702071,12.6084341 L13.8702071,13.3645826 L20.3028602,13.3645826 L20.3028602,12.6084341 L20.3028602,12.6084341 Z M20.3028602,14.1214877 L13.8702071,14.1214877 L13.8702071,18.6604597 L20.3028602,18.6604597 L20.3028602,14.1214877 L20.3028602,14.1214877 Z M13.8704082,19.4169865 L13.8704082,21.6861888 C13.8704082,22.1039808 14.2304357,22.4430939 14.6744898,22.4430939 L19.4989796,22.4430939 C19.9430337,22.4430939 20.3030612,22.1039808 20.3030612,21.6861888 L20.3030612,19.4169865 L13.8704082,19.4169865 L13.8704082,19.4169865 Z M17.0867347,21.6859997 C16.6426806,21.6859997 16.2826531,21.3476431 16.2826531,20.9302294 C16.2826531,20.5122483 16.6426806,20.1733243 17.0867347,20.1733243 C17.5307888,20.1733243 17.8908163,20.5122483 17.8908163,20.9302294 C17.8908163,21.3478322 17.5305878,21.6859997 17.0867347,21.6859997 L17.0867347,21.6859997 Z" id="Icon" fill="#909090" sketch:type="MSShapeGroup" mask="url(#mask-14)"></path>
                        <text id="your-phone-number" sketch:type="MSTextLayer" mask="url(#mask-14)" font-family="Avenir" font-size="12" font-weight="normal" fill="#999999">
                            <tspan x="45.9532653" y="20.9676">your phone number</tspan>
                        </text>
                    </g>
                    <text id="Enter-your-phone-to-" sketch:type="MSTextLayer" font-family="Avenir" font-size="12" font-weight="normal" sketch:alignment="middle" line-spacing="16" fill="#000000">
                        <tspan x="63.612" y="273.331315">Enter your phone to sign in </tspan>
                        <tspan x="81.714" y="289.331315">or create an account</tspan>
                    </text>
                    <rect id="Rectangle-1847" opacity="0.600000024" fill="#FFFFFF" sketch:type="MSShapeGroup" x="22" y="84" width="228" height="20" rx="5"></rect>
                    <g id="Group" transform="translate(18.000000, 69.000000)" fill="#030303" sketch:type="MSShapeGroup">
                        <path d="M5.80967781,7.61261261 C6.76358486,7.61261261 7.53687932,6.89162972 7.53687932,6.00225225 C7.53687932,5.11287478 6.76358486,4.39189189 5.80967781,4.39189189 C4.85577075,4.39189189 4.0824763,5.11287478 4.0824763,6.00225225 C4.0824763,6.89162972 4.85577075,7.61261261 5.80967781,7.61261261 Z M10.2061907,7.61261261 C11.1600978,7.61261261 11.9333922,6.89162972 11.9333922,6.00225225 C11.9333922,5.11287478 11.1600978,4.39189189 10.2061907,4.39189189 C9.25228369,4.39189189 8.47898923,5.11287478 8.47898923,6.00225225 C8.47898923,6.89162972 9.25228369,7.61261261 10.2061907,7.61261261 Z M14.6027037,7.61261261 C15.5566107,7.61261261 16.3299052,6.89162972 16.3299052,6.00225225 C16.3299052,5.11287478 15.5566107,4.39189189 14.6027037,4.39189189 C13.6487966,4.39189189 12.8755022,5.11287478 12.8755022,6.00225225 C12.8755022,6.89162972 13.6487966,7.61261261 14.6027037,7.61261261 Z M18.9992166,7.61261261 C19.9531237,7.61261261 20.7264181,6.89162972 20.7264181,6.00225225 C20.7264181,5.11287478 19.9531237,4.39189189 18.9992166,4.39189189 C18.0453096,4.39189189 17.2720151,5.11287478 17.2720151,6.00225225 C17.2720151,6.89162972 18.0453096,7.61261261 18.9992166,7.61261261 Z M18.9992166,7.31981982 C19.779686,7.31981982 20.4123815,6.72992473 20.4123815,6.00225225 C20.4123815,5.27457978 19.779686,4.68468468 18.9992166,4.68468468 C18.2187472,4.68468468 17.5860517,5.27457978 17.5860517,6.00225225 C17.5860517,6.72992473 18.2187472,7.31981982 18.9992166,7.31981982 Z M23.3957295,7.61261261 C24.3496366,7.61261261 25.1229311,6.89162972 25.1229311,6.00225225 C25.1229311,5.11287478 24.3496366,4.39189189 23.3957295,4.39189189 C22.4418225,4.39189189 21.668528,5.11287478 21.668528,6.00225225 C21.668528,6.89162972 22.4418225,7.61261261 23.3957295,7.61261261 Z M23.3957295,7.31981982 C24.1761989,7.31981982 24.8088944,6.72992473 24.8088944,6.00225225 C24.8088944,5.27457978 24.1761989,4.68468468 23.3957295,4.68468468 C22.6152601,4.68468468 21.9825647,5.27457978 21.9825647,6.00225225 C21.9825647,6.72992473 22.6152601,7.31981982 23.3957295,7.31981982 Z" id="Mobile-Signal"></path>
                        <path d="M34.4377988,7.28380883 C34.1124274,6.93652217 33.6262909,6.7160295 33.0831341,6.7160295 C32.5501789,6.7160295 32.0721223,6.92831728 31.7469724,7.26437523 L33.1051016,8.49099099 L34.4377988,7.28380883 Z M35.8064179,6.04408792 C35.1289046,5.38255375 34.1595736,4.96837511 33.0831341,4.96837511 C32.015855,4.96837511 31.0538691,5.37553451 30.3772102,6.02725301 L31.0618283,6.64557655 C31.5629719,6.15179371 32.2830221,5.84220231 33.0831341,5.84220231 C33.8929219,5.84220231 34.6206999,6.15932682 35.1225247,6.66357122 L35.8064179,6.04408792 L35.8064179,6.04408792 Z M37.1734217,4.80583024 C36.1452392,3.82939988 34.6928902,3.22072072 33.0831341,3.22072072 C31.4815141,3.22072072 30.0357141,3.82326255 29.0084691,4.79105297 L29.6927913,5.40910934 C30.5447865,4.59937455 31.7486851,4.09454792 33.0831341,4.09454792 C34.4262308,4.09454792 35.6370797,4.6059387 36.4899962,5.42488988 L37.1734217,4.80583024 Z" id="Wi-Fi"></path>
                        <path d="M217.526959,3.22072072 C217.062113,3.22072072 216.68528,3.60309257 216.68528,4.06563026 L216.68528,7.93887424 C216.68528,8.4055049 217.063268,8.78378378 217.526959,8.78378378 L229.975251,8.78378378 C230.440097,8.78378378 230.816929,8.40141193 230.816929,7.93887424 L230.816929,4.06563026 C230.816929,3.59899961 230.438942,3.22072072 229.975251,3.22072072 L217.526959,3.22072072 Z M231.130966,4.97747748 L231.130966,7.02702703 L231.602021,7.02702703 C231.862177,7.02702703 232.073076,6.80768932 232.073076,6.55166763 L232.073076,5.45283687 C232.073076,5.19030313 231.854569,4.97747748 231.602021,4.97747748 L231.130966,4.97747748 Z M217.562357,3.51351351 C217.251398,3.51351351 216.999317,3.76719041 216.999317,4.08449347 L216.999317,7.92001103 C216.999317,8.23535456 217.257011,8.49099099 217.562357,8.49099099 L229.939853,8.49099099 C230.250811,8.49099099 230.502892,8.23731409 230.502892,7.92001103 L230.502892,4.08449347 C230.502892,3.76914995 230.245199,3.51351351 229.939853,3.51351351 L217.562357,3.51351351 Z M217.606468,3.80630631 C217.444585,3.80630631 217.313354,3.93301064 217.313354,4.0944706 L217.313354,7.9100339 C217.313354,8.06918265 217.440787,8.1981982 217.606468,8.1981982 L229.895741,8.1981982 C230.057624,8.1981982 230.188856,8.07149387 230.188856,7.9100339 L230.188856,4.0944706 C230.188856,3.93532186 230.061422,3.80630631 229.895741,3.80630631 L217.606468,3.80630631 Z" id="Battery"></path>
                        <path d="M105.732081,7.2165433 C105.795138,7.71103705 106.249806,8.13583705 107.049625,8.13583705 C108.207869,8.13583705 108.73555,7.30614955 108.73555,5.6700058 C108.73555,3.8314183 107.905863,3.41657455 107.155825,3.41657455 C106.286313,3.41657455 105.609288,3.98076205 105.609288,4.93656205 C105.609288,5.8890433 106.236531,6.46982455 107.052944,6.46982455 C107.67355,6.46982455 108.04525,6.1346308 108.191275,5.74633705 L108.221144,5.74633705 C108.247694,6.7983808 107.942369,7.67121205 107.0629,7.67121205 C106.601594,7.67121205 106.339413,7.4355808 106.273038,7.2165433 L105.732081,7.2165433 Z M108.1249,4.9730683 C108.1249,5.67332455 107.637044,5.99856205 107.132594,5.99856205 C106.608231,5.99856205 106.136969,5.66668705 106.136969,4.95647455 C106.136969,4.2761308 106.588319,3.8845183 107.116,3.8845183 C107.683506,3.8845183 108.1249,4.27281205 108.1249,4.9730683 L108.1249,4.9730683 Z M109.804409,6.9510433 C109.804409,7.19994955 110.003534,7.39243705 110.245803,7.39243705 C110.507984,7.39243705 110.70379,7.19994955 110.70379,6.9510433 C110.70379,6.68886205 110.507984,6.49637455 110.245803,6.49637455 C110.003534,6.49637455 109.804409,6.68886205 109.804409,6.9510433 L109.804409,6.9510433 Z M109.804409,4.68433705 C109.804409,4.9332433 110.003534,5.1257308 110.245803,5.1257308 C110.507984,5.1257308 110.70379,4.9332433 110.70379,4.68433705 C110.70379,4.4221558 110.507984,4.2296683 110.245803,4.2296683 C110.003534,4.2296683 109.804409,4.4221558 109.804409,4.68433705 L109.804409,4.68433705 Z M113.62783,3.5194558 C112.970718,4.5549058 112.280418,5.58703705 111.706274,6.61584955 L111.706274,7.09374955 L113.909924,7.09374955 L113.909924,8.04954955 L114.417693,8.04954955 L114.417693,7.09374955 L115.015068,7.09374955 L115.015068,6.6191683 L114.417693,6.6191683 L114.417693,3.5194558 L113.62783,3.5194558 Z M112.250549,6.6191683 L112.250549,6.5859808 C112.741724,5.7363808 113.332461,4.8071308 113.880055,3.9973558 L113.909924,3.9973558 L113.909924,6.6191683 L112.250549,6.6191683 Z M117.504351,8.04954955 L117.504351,3.5194558 L116.983308,3.5194558 L115.904714,4.32591205 L115.904714,4.8801433 L116.956758,4.11351205 L116.983308,4.11351205 L116.983308,8.04954955 L117.504351,8.04954955 Z M120.803631,8.04954955 L121.274894,6.65567455 L122.990688,6.65567455 L123.46195,8.04954955 L124.016181,8.04954955 L122.389994,3.5194558 L121.875588,3.5194558 L120.2494,8.04954955 L120.803631,8.04954955 Z M122.141088,4.17324955 L122.841344,6.2209183 L121.424238,6.2209183 L122.121175,4.17324955 L122.141088,4.17324955 Z M125.393684,8.04954955 L125.393684,4.6743808 L125.420234,4.6743808 L126.721184,7.7010808 L127.195765,7.7010808 L128.493396,4.6743808 L128.523265,4.6743808 L128.523265,8.04954955 L129.004484,8.04954955 L129.004484,3.5194558 L128.496715,3.5194558 L126.97009,7.14684955 L126.950178,7.14684955 L125.420234,3.5194558 L124.912465,3.5194558 L124.912465,8.04954955 L125.393684,8.04954955 Z" id="9:41-AM"></path>
                        <path d="M200.858992,8.04954955 L200.858992,3.5194558 L200.337948,3.5194558 L199.259354,4.32591205 L199.259354,4.8801433 L200.311398,4.11351205 L200.337948,4.11351205 L200.337948,8.04954955 L200.858992,8.04954955 Z M202.753998,5.71314955 C202.753998,4.58477455 203.168842,3.8911558 203.822635,3.8911558 C204.476429,3.8911558 204.887954,4.58477455 204.887954,5.71314955 L204.887954,5.8624933 C204.887954,6.9908683 204.476429,7.67784955 203.822635,7.67784955 C203.168842,7.67784955 202.753998,6.9908683 202.753998,5.8624933 L202.753998,5.71314955 Z M202.232954,5.8691308 C202.232954,7.2430933 202.810417,8.1457933 203.822635,8.1457933 C204.838173,8.1457933 205.408998,7.2430933 205.408998,5.8691308 L205.408998,5.7098308 C205.408998,4.33254955 204.838173,3.42321205 203.825954,3.42321205 C202.810417,3.42321205 202.232954,4.3358683 202.232954,5.7098308 L202.232954,5.8691308 Z M206.859292,5.71314955 C206.859292,4.58477455 207.274135,3.8911558 207.927929,3.8911558 C208.581723,3.8911558 208.993248,4.58477455 208.993248,5.71314955 L208.993248,5.8624933 C208.993248,6.9908683 208.581723,7.67784955 207.927929,7.67784955 C207.274135,7.67784955 206.859292,6.9908683 206.859292,5.8624933 L206.859292,5.71314955 Z M206.338248,5.8691308 C206.338248,7.2430933 206.91571,8.1457933 207.927929,8.1457933 C208.943467,8.1457933 209.514292,7.2430933 209.514292,5.8691308 L209.514292,5.7098308 C209.514292,4.33254955 208.943467,3.42321205 207.931248,3.42321205 C206.91571,3.42321205 206.338248,4.3358683 206.338248,5.7098308 L206.338248,5.8691308 Z M210.543104,4.61796205 C210.543104,4.19979955 210.705723,3.84801205 211.060829,3.84801205 C211.40266,3.84801205 211.575235,4.17988705 211.575235,4.6279183 L211.575235,4.65114955 C211.575235,5.1058183 211.389385,5.4310558 211.05751,5.4310558 C210.718998,5.4310558 210.543104,5.09586205 210.543104,4.6411933 L210.543104,4.61796205 Z M210.144854,4.6743808 C210.144854,5.29498705 210.470092,5.79943705 211.050873,5.79943705 C211.638292,5.79943705 211.973485,5.2916683 211.973485,4.68433705 L211.973485,4.59804955 C211.973485,3.9840808 211.634973,3.48294955 211.05751,3.48294955 C210.476729,3.48294955 210.144854,3.9907183 210.144854,4.5880933 L210.144854,4.6743808 Z M213.204742,6.8979433 C213.204742,6.4797808 213.36736,6.1279933 213.722467,6.1279933 C214.064298,6.1279933 214.236873,6.4598683 214.236873,6.90789955 L214.236873,6.9311308 C214.236873,7.38579955 214.051023,7.71103705 213.719148,7.71103705 C213.380635,7.71103705 213.204742,7.3758433 213.204742,6.92117455 L213.204742,6.8979433 Z M212.806492,6.95436205 C212.806492,7.5749683 213.131729,8.0794183 213.71251,8.0794183 C214.299929,8.0794183 214.635123,7.57164955 214.635123,6.9643183 L214.635123,6.8780308 C214.635123,6.26406205 214.29661,5.7629308 213.719148,5.7629308 C213.138367,5.7629308 212.806492,6.27069955 212.806492,6.86807455 L212.806492,6.95436205 Z M210.894892,8.04954955 L212.620642,5.7828433 L214.343073,3.5194558 L213.868492,3.5194558 L212.14606,5.7828433 L210.42031,8.04954955 L210.894892,8.04954955 Z" id="100%"></path>
                    </g>
                    <path d="M115.270508,98.0830078 C116.027344,98.0830078 116.496094,97.7314453 116.759766,97.3115234 L116.793945,97.3115234 L116.793945,98 L117.536133,98 L117.536133,94.484375 C117.536133,93.2441406 116.681641,92.7949219 115.65625,92.7949219 C114.586914,92.7949219 113.878906,93.2246094 113.795898,94.0986328 L114.542969,94.0986328 C114.655273,93.7324219 114.938477,93.4736328 115.62207,93.4736328 C116.320312,93.4736328 116.759766,93.7910156 116.759766,94.4892578 L116.759766,95.0117188 L115.392578,95.0117188 C114.220703,95.0117188 113.600586,95.6220703 113.600586,96.5107422 C113.600586,97.453125 114.279297,98.0830078 115.270508,98.0830078 L115.270508,98.0830078 Z M115.46582,97.4042969 C114.904297,97.4042969 114.391602,97.1210938 114.391602,96.4960938 C114.391602,96.0175781 114.679688,95.6513672 115.407227,95.6513672 L116.759766,95.6513672 L116.759766,96.2373047 C116.759766,96.9013672 116.203125,97.4042969 115.46582,97.4042969 L115.46582,97.4042969 Z M123.371094,92.8779297 L122.604492,92.8779297 L122.604492,96.1494141 C122.604492,96.8183594 122.003906,97.4042969 121.208008,97.4042969 C120.558594,97.4042969 120.036133,97.1162109 120.036133,96.2470703 L120.036133,92.8779297 L119.269531,92.8779297 L119.269531,96.4570312 C119.269531,97.6386719 120.006836,98.0830078 121.032227,98.0830078 C121.930664,98.0830078 122.414062,97.5703125 122.560547,97.1503906 L122.604492,97.1503906 L122.604492,98 L123.371094,98 L123.371094,92.8779297 Z M125.426758,92.8779297 L124.645508,92.8779297 L124.645508,93.5175781 L125.426758,93.5175781 L125.426758,96.5693359 C125.426758,97.5703125 125.646484,98.0488281 126.847656,98.0488281 C127.008789,98.0488281 127.370117,98.0244141 127.438477,98.0097656 L127.438477,97.3701172 C127.360352,97.3798828 127.160156,97.3945312 127.042969,97.3945312 C126.393555,97.3945312 126.193359,97.2382812 126.193359,96.6083984 L126.193359,93.5175781 L127.355469,93.5175781 L127.355469,92.8779297 L126.193359,92.8779297 L126.193359,91.5888672 L125.426758,91.5888672 L125.426758,92.8779297 Z M128.864258,98 L129.630859,98 L129.630859,95.1435547 C129.630859,94.2158203 130.104492,93.4736328 131.041992,93.4736328 C131.779297,93.4736328 132.233398,93.9277344 132.233398,94.7480469 L132.233398,98 L133,98 L133,94.4941406 C133,93.3564453 132.262695,92.7949219 131.271484,92.7949219 C130.1875,92.7949219 129.772461,93.4638672 129.669922,93.8154297 L129.630859,93.8154297 L129.630859,90.7880859 L128.864258,90.7880859 L128.864258,98 Z M135.324219,94.5625 C135.324219,92.9023438 135.93457,91.8818359 136.896484,91.8818359 C137.858398,91.8818359 138.463867,92.9023438 138.463867,94.5625 L138.463867,94.7822266 C138.463867,96.4423828 137.858398,97.453125 136.896484,97.453125 C135.93457,97.453125 135.324219,96.4423828 135.324219,94.7822266 L135.324219,94.5625 Z M134.557617,94.7919922 C134.557617,96.8134766 135.407227,98.1416016 136.896484,98.1416016 C138.390625,98.1416016 139.230469,96.8134766 139.230469,94.7919922 L139.230469,94.5576172 C139.230469,92.53125 138.390625,91.1933594 136.901367,91.1933594 C135.407227,91.1933594 134.557617,92.5361328 134.557617,94.5576172 L134.557617,94.7919922 Z M140.504883,97.4335938 C140.504883,97.7998047 140.797852,98.0830078 141.154297,98.0830078 C141.540039,98.0830078 141.828125,97.7998047 141.828125,97.4335938 C141.828125,97.0478516 141.540039,96.7646484 141.154297,96.7646484 C140.797852,96.7646484 140.504883,97.0478516 140.504883,97.4335938 L140.504883,97.4335938 Z M143.258789,95.8808594 C143.258789,97.2285156 144.064453,98.0830078 145.358398,98.0830078 C146.696289,98.0830078 147.287109,97.3359375 147.321289,96.6474609 L146.554688,96.6474609 C146.457031,97.0283203 146.164062,97.3847656 145.368164,97.3847656 C144.533203,97.3847656 144.025391,96.7988281 144.025391,95.890625 L144.025391,95.0166016 C144.025391,94.0888672 144.479492,93.4931641 145.368164,93.4931641 C146.217773,93.4931641 146.457031,94.0058594 146.515625,94.2939453 L147.282227,94.2939453 C147.257812,93.5810547 146.623047,92.7949219 145.358398,92.7949219 C144.064453,92.7949219 143.258789,93.6591797 143.258789,94.9824219 L143.258789,95.8808594 Z M150.69043,92.7949219 C149.450195,92.7949219 148.512695,93.6591797 148.512695,95.03125 L148.512695,95.8417969 C148.512695,97.2822266 149.430664,98.0830078 150.69043,98.0830078 C151.925781,98.0830078 152.863281,97.2675781 152.863281,95.8417969 L152.863281,95.03125 C152.863281,93.6054688 151.925781,92.7949219 150.69043,92.7949219 L150.69043,92.7949219 Z M150.695312,93.4736328 C151.554688,93.4736328 152.09668,94.1376953 152.09668,95.1191406 L152.09668,95.7636719 C152.09668,96.7695312 151.579102,97.4042969 150.695312,97.4042969 C149.806641,97.4042969 149.279297,96.7695312 149.279297,95.7636719 L149.279297,95.1191406 C149.279297,94.1376953 149.84082,93.4736328 150.695312,93.4736328 L150.695312,93.4736328 Z M154.40625,98 L155.172852,98 L155.172852,94.7041016 C155.172852,93.9912109 155.65625,93.4736328 156.339844,93.4736328 C157.057617,93.4736328 157.482422,93.9619141 157.482422,94.6308594 L157.482422,98 L158.249023,98 L158.249023,94.7138672 C158.249023,93.9960938 158.766602,93.4736328 159.44043,93.4736328 C160.182617,93.4736328 160.558594,93.9375 160.558594,94.5917969 L160.558594,98 L161.325195,98 L161.325195,94.3867188 C161.325195,93.3564453 160.680664,92.7949219 159.625977,92.7949219 C158.761719,92.7949219 158.27832,93.2490234 158.063477,93.7568359 L158.029297,93.7568359 C157.863281,93.2099609 157.375,92.7949219 156.598633,92.7949219 C155.651367,92.7949219 155.333984,93.3271484 155.211914,93.6835938 L155.172852,93.6835938 L155.172852,92.8779297 L154.40625,92.8779297 L154.40625,98 Z" id="auth0.com" fill="#666666" sketch:type="MSShapeGroup"></path>
                </g>
            </g>
        </g>
    </g>
</svg>