<?xml version="1.0" standalone="no"?>
<!DOCTYPE svg PUBLIC "-//W3C//DTD SVG 1.1//EN" "http://www.w3.org/Graphics/SVG/1.1/DTD/svg11.dtd" >
<svg xmlns="http://www.w3.org/2000/svg">
<metadata>Generated by IcoMoon</metadata>
<defs>
<font id="icomoon" horiz-adv-x="1024">
<font-face units-per-em="1024" ascent="960" descent="-64" />
<missing-glyph horiz-adv-x="1024" />
<glyph unicode="&#x20;" d="" horiz-adv-x="512" />
<glyph unicode="&#x21;" d="M24 808c-2-12 0-23 4-34 70-171 141-342 212-514 2-5 5-10 6-16-5-12-12-24-16-37-10-25-22-51-44-69-19-16-45-22-70-21-13 0-27 4-40 0-17-5-30-20-33-37-4-24 13-49 37-53 39-5 80-5 118 7 29 9 55 28 74 52 26 33 43 73 58 111 78 194 155 388 234 581 8 25-6 55-30 63-24 10-54-2-65-25-53-144-109-288-164-431 0-3-2-5-4-7l-174 441c-9 20-30 33-51 32-25 0-48-19-52-43zM825 748c-23-12-43-28-65-42-37-26-73-52-108-81-20-16-40-32-57-52-3-5-8-10-8-17 0-3 5-4 8-5 13-2 27 2 40 5 29 9 56 20 84 31 51 22 101 47 149 73 20 13 26 41 16 62s-37 33-59 26zM918 476c-56-5-111-12-166-22-24-4-48-9-71-17-8-3-17-5-22-13 3-4 6-8 10-10 11-6 22-9 34-12 30-7 61-11 92-14 53-5 105-6 157-7 24-1 46 19 48 43 4 24-13 50-38 55-15 1-29-2-44-3zM591 303c-5-2-5-9-2-12 5-10 13-17 21-25 30-29 63-54 96-79 36-26 73-52 111-76 11-8 26-8 39-3 18 6 32 24 33 44 1 18-9 38-26 46-58 30-117 59-178 83-23 9-47 18-72 22-8 1-15 2-22 0z" />
<glyph unicode="&#x22;" d="M980 839c63-83 62-180 7-274-23-40-41-88-42-133-9-236-184-437-409-459-256-25-467 120-525 360-5 20-15 39-23 58v111c7 13 17 26 20 40 72 278 306 421 586 361 36-7 77-3 112 8 108 34 212 10 274-72zM582 45c186 54 296 206 298 420-77 1-77 1-86-58-30-191-185-311-372-286-162 22-298 192-277 347 26 195 181 323 370 298 62-9 75 14 78 63-149 62-331 10-440-122-117-143-128-332-28-487 99-152 287-224 457-175zM776 478c112-1 206 89 208 200 3 109-103 215-211 212-106-2-204-103-203-210 0-111 93-202 206-202zM752 837v-314c-92 19-137 75-137 160 1 80 42 136 137 154zM802 529v297c81-5 132-55 138-134 6-81-42-139-138-163z" />
<glyph unicode="&#x23;" d="M646 240c0-39 31-69 71-69 39 0 71 31 72 69 0 38-33 71-73 70-39 0-70-30-70-70zM992 440c0 41-29 70-69 70-40 1-73-31-73-69 1-38 33-70 71-70 40-1 71 30 71 69zM646 641c0-39 32-70 71-70 39 1 71 33 72 70 0 37-33 70-71 70-40 1-72-30-72-70zM32 441c0-39 32-70 70-70 40 0 72 33 72 71-1 38-33 68-72 68-41 0-70-29-70-69zM646 441c0-38 32-70 71-70s72 33 72 71c-1 38-33 68-72 68-41 0-71-29-71-69zM378 440c0 40-29 70-69 70-41 1-73-29-74-69 0-37 34-70 73-70 38 0 69 31 70 69zM511 510c-39 0-71-31-70-69 0-39 32-70 71-70s71 31 71 69c1 40-31 70-72 70zM512 773c40 0 71 31 71 70-1 37-34 69-71 68-38 0-71-32-71-70 1-37 33-68 71-68zM512-29c39 0 71 31 71 70 0 37-32 68-71 68-38 1-71-32-71-69 0-38 32-68 71-69zM583 241c0 37-32 69-71 69-37 0-70-32-71-69 0-37 33-70 72-70 38 1 70 32 70 70zM238 240c0-39 30-69 69-69s70 31 70 69-31 70-69 70c-41 0-70-30-70-70zM512 710c-40-1-70-30-71-68 0-38 31-69 70-69 41 0 72 30 72 69-1 38-32 68-71 68zM308 573c40 0 69 29 69 69 0 39-29 67-69 68-40 0-73-32-72-69 1-38 33-68 72-68z" />
<glyph unicode="&#x24;" d="M0 53h263l65 303h187c92 0 171 26 239 80 68 53 112 126 132 219 10 53 10 99 0 138s-28 71-53 97c-26 25-55 44-87 57-32 12-65 18-99 18h-448zM102-59l12 50h221l64 302h188c91 0 171 27 239 80s112 126 131 219c15 66 11 124-12 174 49-57 63-132 44-224-20-93-64-166-132-219-67-53-147-80-239-80h-188l-64-302h-264zM366 530l56 250h128c22 0 41-6 57-18s27-28 32-48c-10 2-16 3-17 3h-128l-43-187h-85zM494 531l30 136h117c0-1 0-3-1-6s-1-5-1-6c-8-34-25-62-54-86-28-24-59-37-91-38z" horiz-adv-x="996" />
<glyph unicode="&#x26;" d="M680 918c8 0 13-4 13-13v-917c0-6-3-10-10-10h-75c-5 0-9 5-9 9v339h-61l-169-339c-2-6-7-9-14-9h-87c-10 0-16 9-10 20l187 346c-100 45-156 136-156 260 0 207 115 314 252 314h139zM599 407v430h-62c-74 0-147-63-147-220 0-150 78-210 158-210h51z" />
<glyph unicode="&#x2a;" d="M0 722c0-4 1-10 2-18l168-704c4-17 13-31 27-42 14-10 30-16 47-16 10 0 21 1 32 4 12 2 25 5 40 10 15 4 25 7 32 9-60 20-109 41-147 62l81 183c28-26 64-46 107-62 43-15 84-23 124-23 31 0 58 9 82 25s36 39 36 69c0 19-6 38-18 56s-28 34-47 48c-20 14-38 25-56 34-18 10-36 18-55 25-173 67-259 164-259 290 0 66 21 123 64 172l-202-48c-17-4-31-13-42-27s-16-30-16-47zM429 675c0-56 58-104 175-143 78-26 141-63 189-112s72-111 72-187c0-56-16-108-48-156l149 35c17 4 31 13 42 27s16 30 16 47c0 4-1 10-2 18l-168 704c-4 17-13 31-27 42s-30 16-47 16c-9 0-24-2-43-6-20-4-44-10-73-19-30-8-45-12-47-12 66-10 129-32 191-64l-63-174c-18 19-48 35-90 47-41 12-79 18-112 18-28 0-54-7-78-21s-36-34-36-60z" />
<glyph unicode="&#x2b;" d="M0 125c0-56 31-101 94-135s140-51 231-51c95 0 171 23 227 68s84 99 84 160c0 47-8 85-24 116s-45 61-87 90c-18 14-37 31-55 50-18 20-28 37-28 50 0 17 4 31 12 43 7 11 24 27 49 47 60 47 90 102 90 166 0 41-9 79-27 113s-43 58-76 70h101l71 51h-318c-72 0-135-23-191-70-56-46-84-100-84-162 0-65 22-120 67-164 45-45 103-67 174-67 13 0 23 0 30 1-11-20-16-39-16-59 0-32 14-61 43-88h-56c-86 0-159-23-220-70-61-46-91-99-91-159zM115 159c0 45 23 84 69 117s100 49 161 48c26 0 52-4 79-12 5-4 14-10 27-18 12-9 20-15 25-18 5-4 12-9 21-15 9-7 16-13 20-17 4-5 9-10 14-17 6-6 10-13 13-19 2-7 5-14 7-21 3-9 4-20 4-33 0-50-18-90-55-120-36-30-95-45-176-45-60 0-109 17-149 50s-60 73-60 120zM182 732c-7 53 2 98 26 134s56 53 97 52 78-21 112-58c34-38 54-84 61-138s-1-99-25-136-56-54-97-53-78 20-112 59-54 86-62 140zM751 707h204v-206h52v206h205v51h-205v205h-52v-205h-204v-51z" horiz-adv-x="1212" />
<glyph unicode="&#x30;" d="M595 312l24-78h153l-178 474h-160l-179-474h150l23 78h167zM564 415h-104l52 170zM1027 431c0 287-232 519-519 519-286 0-519-232-519-519 0-286 233-519 519-519 287 0 519 233 519 519zM513 818c215 0 389-174 389-389s-174-389-389-389-389 174-389 389 174 389 389 389zM512 781c194 0 352-157 352-351 0-195-158-352-352-352s-352 157-352 352c0 194 158 351 352 351z" />
<glyph unicode="&#x3f;" d="M2 154c0-47 13-76 39-86 12-11 26-18 43-21 5-18 14-32 26-43 7-20 37-35 91-46 53-11 97-17 132-17h123c1 0 3 0 7 1 3 1 6 1 7 1s14 2 40 5c26 4 45 7 58 9 12 3 29 7 50 13 22 5 38 12 50 21 12 8 20 18 24 29 7 11 11 20 14 27 49 9 74 45 74 108 0 74-24 142-72 203-49 61-109 104-182 130 53 43 79 97 79 164 0 58-21 108-64 149-42 41-93 62-152 62s-109-21-152-62-64-91-64-149c0-67 27-122 81-165-57-22-108-57-151-106-43-48-73-102-89-161-8-29-12-51-12-66z" horiz-adv-x="784" />
<glyph unicode="&#x44;" d="M0 96c0-53 16-95 49-126 33-30 78-38 136-24 13 3 30 10 52 21l36 19 92 40c2 0 9 4 23 10 13 6 25 11 36 15 26 11 47 20 62 28 13 6 31 16 55 31 21 13 37 27 48 40 12 13 21 31 29 53 9 20 14 44 14 69 0 21-3 41-8 60-5 20-10 36-16 50-5 14-14 29-26 47-13 18-22 31-29 39s-18 21-34 38c-16 18-25 29-30 34-3 4-14 16-32 37-18 20-30 34-35 41-6 6-15 19-28 38s-21 34-26 47c-4 13-9 29-13 48-4 20-5 39-5 59 2 51 24 90 66 117 18 9 27 18 27 25-3 12-12 14-25 7-19-11-49-24-88-41l-71-31-48-22c-8-3-18-7-30-12-12-6-20-9-23-10-6-3-21-11-46-26-20-12-35-23-43-33-24-24-39-55-43-93-11-78 21-163 96-253 6-7 26-31 61-72 23-26 41-49 56-70-6-3-48-22-125-55-17-7-36-17-56-30-39-25-58-63-58-115z" horiz-adv-x="632" />
<glyph unicode="&#x45;" d="M0 650c0-13 1-30 4-53 4-27 12-72 24-136 13-64 25-108 37-132 8-20 21-33 37-41 49-21 116-37 203-48 21-5 39-8 55-8h7c17 1 30 9 37 26l9 25c12 36 18 77 18 123 0 1 1 2 3 2 1 0 2-1 2-2 0-68 18-108 54-122 22-7 62-14 122-20 26-4 46-15 58-33 13-18 19-53 19-105 0-34-5-55-16-65-11-9-36-13-75-13h-33c-5 0-13 0-23 2-10 1-16 3-18 7-3 3-5 8-8 14s-4 14-4 24c2 4 2 8 1 11-1 4 0 7 4 10 4 2 6 4 6 6-1 1 2 3 8 4s9 2 9 2c0 1 3 2 10 2h31c4 0 6 1 7 3 0 2 0 6-1 12-2 7-2 13-2 19 0 4 0 9 1 14 1 4 2 8 3 11s2 5 3 8c1 2 0 4-1 5s-3 1-5 1h-29c-17 0-31 0-41-1-16-1-31-6-48-13-16-8-27-20-33-39-7-18-10-42-10-73 0-55 13-91 38-109 26-17 76-26 149-26 27 0 47 1 60 2 14 1 28 4 44 8 15 5 28 13 37 24s19 25 28 43c10 18 19 42 29 71 18 56 33 142 44 260 2 18 3 42 3 72 0 40-2 90-5 151-5 106-12 177-18 215-8 37-26 60-55 69-22 8-66 16-132 24-24 3-55 5-91 5-15 0-31 0-49-1-5 32-20 53-46 64-27 10-60 16-101 17h-19c-29 0-47-2-54-6-24-7-41-17-51-32-9-13-13-28-13-45v-60c1-16 1-31 1-45 0-11-3-19-11-27-8-7-16-11-27-11h-96c-20 0-36-3-48-9-12-5-20-12-27-22-10-12-15-32-15-59zM6 772c3 1 6 3 9 5 17 7 38 11 61 11h95c7 0 10 3 10 10 0 55-1 91-1 106 0 19 4 35 11 49l4 6c-1 0-1 0-1-1l-188-184v-2zM588 475c3 21 9 38 19 53 10 13 25 20 45 20h3c42-1 63-31 63-89-25 12-52 18-83 19-17 0-33-1-47-3z" horiz-adv-x="856" />
<glyph unicode="&#x47;" d="M0 125c0-56 31-101 94-135s140-51 231-51c95 0 171 23 227 68s84 99 84 160c0 47-8 85-24 116s-45 61-87 90c-18 14-37 31-55 50-18 20-28 37-28 50 0 17 4 31 12 43 7 11 24 27 49 47 60 47 90 102 90 166 0 41-9 79-27 113s-43 58-76 70h101l71 51h-318c-72 0-135-23-191-70-56-46-84-100-84-162 0-65 22-120 67-164 45-45 103-67 174-67 13 0 23 0 30 1-11-20-16-39-16-59 0-32 14-61 43-88h-56c-86 0-159-23-220-70-61-46-91-99-91-159zM115 159c0 45 23 84 69 117 45 32 98 48 157 48h4c26 0 52-4 79-12 5-4 14-10 27-18 12-9 20-15 25-18 5-4 12-9 21-15 9-7 16-13 20-17 4-5 9-10 14-17 6-6 10-13 13-19 2-7 5-14 7-21 3-9 4-20 4-33 0-50-18-90-55-120-36-30-95-45-176-45-60 0-109 17-149 50s-60 73-60 120zM182 732c-1 11-2 22-2 33 0 39 9 73 28 101 23 35 54 52 93 52h4c41-1 78-21 112-58 34-38 54-84 61-138 2-12 2-24 2-34 0-39-9-73-27-102-24-35-54-53-93-53h-4c-41 1-78 20-112 59s-54 86-62 140z" horiz-adv-x="660" />
<glyph unicode="&#x4c;" d="M-5 842c0-34 11-62 35-85 23-22 53-34 91-34h1c39 0 70 12 94 34 23 22 35 49 35 82 0 36-12 66-36 88-23 22-54 33-91 33-38 0-69-11-93-33-24-23-36-51-36-85zM8-54h228v684h-228v-684zM361-54c2 206 3 366 3 480s-1 182-3 204h228v-97l-1-2h1v2c49 76 118 114 206 114 78 0 141-27 189-79s72-129 72-230v-392h-228v366c0 103-38 154-114 154-30 0-54-8-73-24-20-16-34-35-44-59-5-13-8-31-8-55v-382h-228z" horiz-adv-x="1064" />
<glyph unicode="&#x4e;" d="M-9 739c0-9 1-18 2-27 2-10 5-19 9-29 3-10 7-18 9-24 3-6 7-15 13-26 5-12 9-19 11-23 63-129 131-239 202-330 30-39 57-70 82-95 26-24 60-47 103-69 44-22 92-35 145-41 26-3 49-4 68-4 45 0 72 8 81 25 5 9 8 26 10 49 1 24 4 44 9 61s15 27 31 30c9 1 18-1 28-6 9-6 17-11 23-18 6-6 14-14 23-26 9-11 14-18 17-21 50-56 97-88 142-96h7c13 3 28 5 46 5 11 0 24-1 38-2 15-2 29-3 44-3 18 0 36 1 54 4 35 6 52 20 52 42 0 16-14 41-41 77-28 35-66 75-115 120-1 1-5 5-12 11s-11 11-14 13c-2 3-5 7-10 13-4 5-8 10-10 15s-3 10-3 15c0 9 1 18 5 27 4 10 8 18 12 23 4 6 10 14 18 25s13 17 14 19c7 8 19 24 38 47 19 24 35 43 47 60 12 16 24 33 35 53 24 40 36 70 36 89 0 5-1 10-3 14-3 5-8 10-14 13-7 3-16 5-26 6-11 1-21 1-31 1-9-1-20-1-33-2s-22-1-28-1c-10 0-26 1-48 2-18 1-34 2-47 2h-10c-15 0-28-2-38-7-11-14-16-19-16-14-1 5-5-2-13-20-7-18-11-27-11-27l-10-23c-32-69-64-125-96-167-1-1-4-5-11-14-6-9-10-15-12-17l-12-12c-5-5-10-9-16-11-5-2-10-4-16-4-18 11-28 32-31 62-2 14-2 27-2 39 0 16 1 32 3 47 0 7 1 25 4 53 2 22 3 40 3 54-1 5-1 9-1 14-1 16-5 31-11 43 5 3 0 8-13 14-13 7-20 10-20 10l-23 5c0 2-9 3-27 3-18 1-27 1-27 1h-54c-42 0-75-3-99-9-24-7-41-19-51-38 6-4 14-7 24-11s19-8 25-12c7-5 12-11 16-18 10-19 15-54 15-105 0-11 0-23-1-36-2-76-12-116-32-119-4-1-8-1-12 0-4 0-8 2-12 5-3 3-7 6-10 9-4 3-7 7-11 11-4 5-7 9-9 12-3 3-6 7-9 13-3 5-6 9-7 11-38 55-70 111-96 167-2 3-6 11-11 22-4 11-8 20-11 26-4 6-7 13-12 20-5 6-9 11-14 13-8 4-19 7-32 8-7 0-15 0-24 1-9 0-19 0-30-1-21-1-34-2-38-2-7 0-18 0-33 1-10 1-18 1-25 1h-9c-8 0-16-1-26-4s-18-7-25-12z" horiz-adv-x="1242" />
<glyph unicode="&#x53;" d="M0 272c0-67 26-127 79-179 52-52 118-91 198-118 80-26 164-39 253-39 83 0 161 11 234 34 74 22 135 51 183 86s86 73 114 115 42 83 42 123c0 44-15 81-45 110s-66 50-109 63c-7 2-12 4-15 6-2 1-5 4-8 9-3 4-2 10 3 17 11 27 16 52 16 73 0 20-5 38-15 53-22 29-58 43-109 43-50 0-108-14-174-41l-10-4c-6-2-12-2-16 1-5 2-6 8-4 17 9 28 13 53 13 74 0 32-9 56-27 74s-43 28-74 28c-28 0-61-8-99-24-81-31-162-87-242-166-125-127-188-245-188-355zM128 223c-1 6-1 12-1 18 0 38 13 76 39 112 30 41 73 75 129 103s118 46 187 52c21 2 41 3 61 3 80 0 151-16 215-50 78-41 121-95 128-164 0-6 1-12 1-18 0-61-32-118-94-169-70-56-157-89-262-99-21-2-41-3-61-3-80 0-151 16-214 50-79 41-121 96-128 165zM292 159c19-44 53-73 103-89 23-7 46-11 69-11 30 0 60 6 90 19 53 23 90 58 112 107 10 22 15 44 15 66 0 24-6 46-17 68-23 42-60 70-112 84-18 5-37 7-55 7-32 0-63-7-94-20-49-22-85-55-106-99-12-24-18-48-18-71 0-21 4-41 13-61zM349 179c-1 4-2 8-2 13 0 12 4 23 11 34 10 15 24 26 42 32 9 3 18 5 26 5 9 0 18-2 27-6 16-6 26-18 30-34 2-6 3-11 3-16 0-11-3-22-10-32-10-17-25-28-44-34-8-3-16-4-24-4-10 0-19 2-28 6-16 7-27 19-31 36zM494 260v6c0 4 1 8 3 12 3 6 8 10 16 13 7 2 13 2 19 0 7-2 11-7 13-13s1-12-2-18c-4-7-9-11-17-14-3-1-6-2-9-2s-7 1-10 2c-7 3-11 7-13 14zM822 895c3-13 10-23 21-30 8-6 17-8 26-8 4 0 7 0 11 1 17 3 33 5 50 5 24 0 48-4 71-11 41-13 76-35 105-67s48-69 57-112c3-17 4-33 4-49 0-25-3-48-11-72v-1c-1-4-2-10-2-15 0-7 2-14 5-22 6-11 15-19 28-23 5-1 10-2 15-2 8 0 15 2 23 5 11 6 19 15 23 28v1c11 32 17 65 17 100 0 23-3 46-8 70-12 59-38 111-79 156s-90 77-147 96c-33 10-67 15-102 15-23 0-47-2-70-7-13-4-23-11-30-22-5-8-8-16-8-25 0-4 1-7 1-11zM863 735c3-11 9-20 19-26 6-5 14-7 21-7 3 0 6 0 9 1 7 1 14 2 21 2 22 0 40-9 55-27 14-15 22-32 22-51 0-8-2-17-4-26-2-5-2-9-2-14 0-6 1-12 4-18 5-10 13-17 24-21 4-1 9-2 14-2 6 0 12 2 18 5 10 5 17 13 20 24 6 16 9 33 9 49 0 11-1 22-3 34-7 29-20 54-39 77-33 36-72 54-118 54-12 0-25-1-38-4-12-3-21-9-27-19-4-7-6-14-6-21 0-4 1-7 1-10z" horiz-adv-x="1264" />
<glyph unicode="&#x54;" d="M0 41c122-77 254-115 396-115 92 0 179 14 259 43s149 68 206 117c58 50 107 106 148 169s72 129 92 199c20 69 31 138 31 207v34c52 38 95 83 128 134-49-21-98-35-148-41 56 33 94 81 113 143-50-30-105-51-164-63-51 54-114 82-189 82-71 0-132-26-183-76-50-51-76-111-76-182 0-17 3-37 8-60-106 6-205 32-298 80-92 47-171 111-235 191-24-41-36-84-36-130 0-45 11-86 31-124 21-38 49-68 85-92-42 1-82 12-118 32v-3c0-62 20-117 59-164 39-48 89-77 149-89-22-6-45-9-69-9-18 0-34 1-48 4 17-52 47-94 91-128 45-33 95-50 151-51-94-74-201-111-322-111-20 0-41 1-61 3z" horiz-adv-x="1258" />
<glyph unicode="&#x56;" d="M0 688l48-63c19 14 36 26 51 33 16 8 28 13 38 15 9 1 17 1 24 0 7-2 12-4 14-5s4-3 4-4c12-14 45-109 99-287s88-280 100-306c10-20 23-40 39-58 15-19 35-35 57-49 23-15 46-22 71-22s52 8 81 25c26 17 56 40 92 70 36 29 78 69 127 120 48 50 93 103 135 158 42 56 81 120 116 192 35 73 59 144 71 213 4 22 7 43 7 63 0 34-7 64-19 90-25 56-73 87-142 92-8 1-17 1-25 1-61 0-120-20-178-61-76-54-122-126-137-214 33 17 61 26 85 26 9 0 17-1 24-4 29-9 46-31 53-66 1-7 2-15 2-24 0-29-9-60-27-93-35-66-67-117-96-155s-51-57-68-57c-15 0-29 18-42 54-14 35-31 96-53 181-5 19-10 43-15 73-5 29-10 56-14 81s-9 51-15 79c-6 29-14 53-22 74-9 21-19 40-30 56-11 17-26 29-43 36-11 4-23 6-36 6-8 0-17-1-25-2l-17-4c-11-4-27-11-49-22-22-12-47-26-75-44-27-18-60-45-97-80-38-34-75-74-113-118z" horiz-adv-x="1172" />
<glyph unicode="&#x57;" d="M0 52c20 14 50 25 89 33 39 9 68 13 86 14s32 2 43 2c21 0 43-1 67-3l26-4c17-2 41-9 70-21 30-12 57-28 82-47l106 379c-29 28-78 49-147 62-37 7-72 11-107 11l-34-1c-23-2-51-6-86-14-34-7-64-18-87-31zM129 540c21 14 50 26 90 33 39 8 68 13 86 14s32 1 43 1c20 0 42-1 66-3l26-4c17-2 41-9 70-21 30-12 57-27 82-47l106 380c-29 28-78 49-147 63-36 7-72 10-107 10l-33-1c-23-1-52-5-86-13-35-8-65-18-88-32zM570 15c30-28 80-49 149-63 36-7 72-10 106-10l34 2c23 1 51 5 86 12 35 8 64 18 88 32l107 380c-20-14-50-25-89-33s-68-13-86-14-32-1-43-1c-22 0-44 1-67 3l-26 4c-17 2-40 9-70 21-29 12-57 28-82 47zM693 501c30-28 80-49 149-62 35-8 70-12 105-12l34 2c23 1 52 5 87 13s64 19 88 33l107 378c-21-14-51-25-89-33-39-8-68-12-86-13s-33-2-44-2c-21 0-43 1-66 3l-26 4c-17 3-40 10-70 21-30 12-57 28-82 47z" horiz-adv-x="1262" />
<glyph unicode="&#x59;" d="M0 837v8c1 4 5 7 10 7h504c1 0 3 0 4-2 2-1 2-3 2-5v-14c0-4-1-7-2-9-2-3-4-5-5-5-1-1-2-1-3-1l-70-22c-6-3-13-5-22-4h-42l233-298 212 200h-118l-18 7-23 23-3 4c-2 3-3 6-5 10-2 5-2 9-2 13l7 6h449c1 0 2 0 3-1s2-3 3-5v-14c0-8-2-14-6-19l-17-19c-7-5-13-7-19-7h-136c-173-163-263-248-270-255l-3-3c-3-3-4-5-6-8-2-2-2-5-2-7v-207c0-10 3-15 10-15h149c1 0 3-1 5-2 1-1 2-3 2-5v-59h-528v57c0 6 3 9 10 9 21 2 69 3 146 3h3c2 1 4 2 5 5 2 3 3 7 3 12v197c0 9-4 17-11 26l-294 352h-114l-19 10-3 2-5 5c-3 3-5 6-8 11zM1219 949l42-585 62-3 85 580zM1232 167l113-4 4 113-113 4z" horiz-adv-x="1412" />
<glyph unicode="&#x61;" d="M1 171c-1-2-2-4-2-6 0-3 2-7 6-10 75-68 160-120 255-157s196-56 302-56c69 0 140 10 212 29 73 19 138 46 197 81 19 11 35 21 47 30 9 7 11 15 5 23-5 8-13 10-24 6-2-1-7-3-13-6-7-3-12-5-15-6-131-50-263-75-397-75-200 0-386 49-557 148-7 5-13 5-16-1zM309 463c0-59 17-105 51-137 34-33 77-49 129-49 35 0 63 3 86 10 37 10 75 36 113 78 3-3 8-10 14-20 7-10 12-17 15-20l16-16c7-8 15-16 25-24 11-5 21-4 29 2 5 4 36 31 93 80 5 4 8 9 8 14s-2 11-6 17c-11 14-19 24-24 31-5 6-10 17-15 32-5 14-7 31-7 48v248c0 3-1 12-1 26-1 15-2 25-4 29l-6 24c-2 12-5 21-9 27-3 6-8 13-14 21-5 7-12 15-19 22-43 40-104 60-182 60h-26c-60-3-113-20-159-49-45-29-74-74-85-135-1-3-1-5-1-7 0-10 6-16 17-19l118-14c11 2 18 10 20 23 5 22 16 39 32 52 17 12 36 19 58 21h9c30 0 53-10 67-31 10-15 15-44 15-88v-17c-42-4-72-6-91-8-53-7-99-18-136-34-40-17-72-42-95-76-23-33-35-74-35-121zM485 484c0 58 30 96 90 113 21 6 51 9 91 9v-26c0-22-1-38-1-47 0-10-2-22-6-37-4-16-9-30-17-43-16-29-38-48-67-55-1 0-3-1-7-1-4-1-7-1-9-1-22 0-40 8-54 24-13 16-20 37-20 64zM915 154c0-1-1-2-1-3s0-3 1-4c2-1 5-2 9-2 14 2 30 4 47 6 15 1 29 2 41 2 31 0 50-4 57-12 3-4 4-9 4-17 0-23-12-64-38-124-2-5-1-9 3-11 2-1 3-1 4-1 3 0 6 2 10 4 23 20 41 46 54 79 13 32 19 60 19 84v7c0 8-1 15-4 19-6 7-24 12-55 15-6 1-13 2-19 1-25-1-50-4-76-11-16-4-32-12-49-24-3-2-5-5-7-8z" horiz-adv-x="1124" />
<glyph unicode="&#x62;" d="M40 206c-1 2-2 3-3 5s-1 3-1 6v15c0 10 2 19 4 29 12 74 31 146 58 215 26 65 60 128 102 184 40 52 88 100 142 138 28 19 58 36 89 48 16 6 32 11 49 15 8 2 17 4 25 5 4 1 9 2 13 2 5 1 10 1 15 1h48c4 0 9-2 13-2 17-4 33-8 49-13 30-9 59-21 87-36 52-28 97-67 136-111 41-48 77-101 106-157 35-66 60-137 76-210 2-6 3-12 5-19 4-16 9-33 12-50 3-16 6-32 4-47-1-14-7-25-15-36-9-13-20-24-32-34-45-41-97-72-153-95-63-25-130-39-198-46-72-8-146-8-220-2-62 6-125 16-186 36-52 17-102 41-145 75-21 16-39 34-56 53-9 10-16 21-24 31zM108 252c-1-2 0-3 1-5 0-1 1-3 2-4 6-11 12-22 20-32 33-42 81-70 130-89 60-23 123-34 186-40 69-7 140-7 210-2 67 4 135 16 198 41 53 20 106 51 136 101 1 2 2 3 3 5 16 34-1 69-17 99-19 32-35 66-55 98-16 27-35 51-54 75-20 24-41 48-63 70-25 26-52 51-81 73-4 3-8 5-11 9-3 3-6 5-10 7-7 3-15 4-22 1-16-5-28-20-39-32-27-28-49-60-73-92-22-28-44-57-72-80-10-8-22-18-35-19-10 0-19 2-27 6-19 8-33 24-46 38-24 26-54 69-95 56-28-10-51-35-69-58-11-14-21-29-30-44-10-15-19-30-29-45-18-31-36-62-48-96-3-9-5-18-7-27-1-4-2-9-3-14z" />
<glyph unicode="&#x63;" d="M77 921v0c52 42 57 42 418 42 340 0 370-2 411-35 58-45 75-104 73-243 0-100-3-113-34-114-20-2-53-4-73-5-56-4-141-84-188-177-29-58-52-82-67-75-21 9-14 28 27 97 71 115 82 212 32 307-91 179-355 176-440-3-39-82-36-182 6-250 27-47 156-146 215-167 9-3 10-15 3-28-10-15-24-13-59 9-135 89-217 108-307 68-36-14-68-26-73-26-3 0-5 125-2 279l6 280zM401 753v0c56 19 130 2 170-42 59-62 61-135 11-229-35-61-42-85-26-104 41-48 3-36-113 33-116 71-149 115-149 194 0 49 60 131 107 148zM873 468v0c91 39 108 16 105-151-4-178-2-170-37-170-24 0-182 68-229 99-3 2 19 47 50 101 38 66 75 106 111 121zM127 269v0c49 17 111 5 177-37 30-17 68-33 83-33 51 0-71-206-138-236-113-47-233 33-233 155 0 50 59 132 111 151zM645 144l9 5-124-186 407-4-17 82zM339-30l-14-9 117-3 126 200-90 7z" horiz-adv-x="972" />
<glyph unicode="&#x64;" d="M-12 419l318-189 208 160 208-160 314 189-202 174 202 169-309 198-213-178-208 178-318-208 219-166zM206 162l305-204v364l-1 1-208-159-96 57v-59zM211 588l303 185 301-174-303-200zM511-42l312 203v65l-102-62-207 159-2-1z" horiz-adv-x="1036" />
<glyph unicode="&#x65;" d="M0 309c0-31 3-56 10-77 6-20 19-39 38-57s49-31 89-40c40-8 92-13 155-13 56 0 107 5 153 16 20 4 39 10 58 19v91h-124c0-41-29-62-87-62-21 0-38 3-51 9s-22 15-27 28c-5 12-8 22-9 31-2 8-2 20-2 34h300v165c-13 7-33 13-60 18-41 9-91 14-151 14-51 0-95-3-132-10-36-6-65-15-85-25-21-9-37-23-48-39s-18-32-22-48c-3-15-5-33-5-54zM203 343c0 11 0 20 1 26 1 5 4 14 9 24 5 11 14 19 27 24s31 7 52 7c22 0 41-2 55-7s23-12 28-22c5-11 7-19 8-24 2-6 2-15 2-28h-182zM503 157c1 0 3 1 4 2 50 25 75 54 76 89h-80v-91zM503 157v-81h105v43h1c19-34 50-51 93-51 22 0 41 4 55 13 15 8 26 21 34 37 7 17 12 33 15 48 3 16 5 34 6 56-52 12-78 54-78 125 0 49 14 84 41 104-18 18-41 27-70 27-39 0-69-15-91-45h-2v207h-109v-187c36-16 60-37 70-63 9-22 14-48 14-78 0-8-1-16-1-24h-83v-40h80c-1-35-26-64-76-89-1-1-3-2-4-2zM503 288h83c0 8 1 16 1 24 0 30-5 56-14 78-10 26-34 47-70 63v-165zM612 277c0 25 1 44 1 55 1 12 3 25 5 39s7 25 13 30c7 6 15 9 26 9 12 0 21-3 28-8 6-6 11-15 13-29 3-14 5-27 5-38 1-11 2-29 2-53v-5c0-53-4-89-10-110s-18-31-38-31c-18 0-30 10-36 31s-9 57-9 110zM734 347c0-71 26-113 78-125v53c1 29 1 51 0 65s-4 33-10 57-15 42-27 54c-27-20-41-55-41-104zM742 509h110c0 20 2 35 7 46s16 16 34 16 30-5 36-15c6-9 9-24 9-44v-31h-25c-66 0-112-10-138-30 12-12 21-30 27-54s9-43 10-57v-118c5-1 14-1 27-1 45 0 80 19 102 59h2l5-53h103c0 6-1 17-2 35-2 17-2 30-2 39v105l-110 223c-31 2-47 3-50 3-46 0-80-9-104-26-27-17-41-50-41-97zM842 352c-7 6-7 13 1 20s9 13 5 16c-5 3-2 7 7 11 8 4 12 7 9 8-2 2 1 4 11 6s14 3 14 3l15 2c2 0 8 0 17 1h17v-20c1-11 1-19 0-25 0-5 0-13-1-24-1-10-2-19-5-24-2-6-5-12-9-19-4-6-10-11-16-14-7-3-14-5-23-5-28 0-42 21-42 64zM910 682l27-53c44-6 73-20 88-41 14-22 22-51 22-89v-93l44-91v-195h144v195l193 367h-146l-112-237-102 237h-158zM937 629l110-223v93c0 38-8 67-22 89-15 21-44 35-88 41z" horiz-adv-x="1441" />
<glyph unicode="&#x66;" d="M287 416h157v-474h197v474h197v196h-197v100c0 17 4 30 12 42 9 11 18 16 28 16h157v196h-157c-66 0-121-25-167-75-47-50-70-110-70-181v-98h-157v-196z" horiz-adv-x="836" />
<glyph unicode="&#x67;" d="M0 99c0 28 9 53 28 77 18 23 43 42 74 56-17 26-26 52-26 77 0 26 9 51 28 75-27 17-49 39-65 66s-25 57-25 89c0 51 18 94 55 129 36 36 79 53 131 53 37 0 72-10 103-31h7c42 0 79 11 112 32v-117c-11-7-26-11-45-15 5-15 7-32 7-51 0-48-17-89-50-124-34-35-75-53-123-56-16-19-25-38-25-55s9-34 25-49c1 0 2 1 3 1h3c60 0 112-15 154-46 43-30 64-68 64-111s-21-80-64-111c-42-31-94-46-154-46s-111 15-154 46c-42 31-63 68-63 111zM124 541c0-22 7-42 22-58s32-24 52-24 38 8 52 24 21 36 21 58c0 23-7 42-21 58s-32 24-52 24-37-8-52-24-22-35-22-58zM127 99c0-18 9-33 26-46s39-20 64-20 47 7 65 20c17 13 26 28 26 46s-9 34-26 46c-18 13-40 19-65 19s-47-6-64-19c-17-12-26-28-26-46zM466 883c0-23 8-43 24-59 16-17 36-25 59-25s43 8 59 25c17 16 25 36 25 59s-8 43-25 59c-16 16-36 24-59 24s-43-8-59-24-24-36-24-59zM485 221h138v490h-138v-490zM671 607v104h56v95h126v-95h93v-104h-93v-244c1-1 1-2 1-4l4-13c3-9 12-15 28-17 2-1 6-1 9-1 16 0 38 5 67 13l-3-101-7-9c-4-6-15-11-30-17-15-5-31-8-50-8h-20c-8 1-19 3-31 7-13 5-26 10-39 17s-24 17-35 32-17 32-20 53v292h-56z" horiz-adv-x="960" />
<glyph unicode="&#x69;" d="M721 597c30-42 48-94 48-151 0-144-116-260-260-260s-261 116-261 260c0 57 18 109 48 151h-296v-457c0-111 90-201 201-201h616c111 0 202 90 202 201v457h-298zM1019 762c0 111-91 201-202 201h-550v-254h-42v254h-28v-254h-41v249c-10-3-20-6-30-10v-239h-41v217c-51-37-85-97-85-164v-133h323c47 48 113 78 186 78 72 0 138-30 185-78h325v133zM927 846v-111c0-18-15-32-33-32h-109c-17 0-32 14-32 32v111c0 18 15 33 32 33h109c18 0 33-15 33-33zM308 446c0-110 90-200 201-200 110 0 200 90 200 200 0 60-26 114-68 151-15 13-31 24-49 32-26 12-54 18-83 18-30 0-58-6-83-18-18-8-35-19-50-32-42-37-68-91-68-151zM361 446c0 82 66 149 148 149s149-67 149-149-67-148-149-148-148 66-148 148z" horiz-adv-x="1019" />
<glyph unicode="&#x6c;" d="M815 612c129 0 226-100 226-224 0-130-101-223-226-223-124 0-225 93-225 223 0 124 97 224 225 224zM815 493c-55 0-101-46-101-105 0-58 46-105 101-105 56 0 101 47 101 105 0 59-45 106-101 105zM1458 243c0 43-35 78-78 78s-78-35-78-78 35-78 78-78 78 35 78 78zM1231 179v555h-123v-555h123zM27 179h157l26 79h194l26-79h156l-220 555h-115zM366 373l-57 186-58-186h115z" horiz-adv-x="1504" />
<glyph unicode="&#x6d;" d="M696 853c363 50 568 77 578 77 29 0 52-7 77-24 22-16 41-45 47-71 5-25 79-572 79-587 0-59-46-113-104-122-48-8-1130-154-1140-154-54 0-100 34-118 86-3 7-17 108-43 297-36 260-39 289-39 305 1 20 6 35 14 52 16 29 45 53 76 61 6 2 264 38 573 80zM1033 813c-20 6-39 2-54-13-14-14-18-32-12-53 4-14 18-28 31-31 21-6 42-1 56 14 23 27 12 72-21 83zM1290 813c-21 6-40 2-54-13-15-14-19-32-13-53 4-14 18-28 31-31 22-6 43-1 56 14 24 27 13 72-20 83zM421 647c-6 2-20 4-33 4-59 2-105-22-139-74-3-5-3-4-6 46l-1 20h-37c-32-1-37-1-36-4 1-1 1-101 2-221l1-218h82l2 295 4 10c9 22 18 35 30 48 31 31 72 38 107 20 21-10 37-33 46-62 3-14 3-17 4-163l1-149h81l1 149c0 148 0 148 4 160 8 24 27 48 46 60 19 13 46 17 68 13 34-7 57-31 69-74 4-14 4-16 5-161l1-146h82v143c0 150-1 158-9 190-15 61-50 100-103 115-17 4-60 4-77 0-17-5-36-13-51-23-15-11-38-35-48-49l-7-11-6 13c-17 35-48 60-83 69zM1058 421v221l-42 1c-32 0-41 0-42-2s-1-101-1-222l1-219h84v221zM1314 421v221l-41 1c-33 0-42 0-43-2v-441h84v221z" horiz-adv-x="1511" />
<glyph unicode="&#x6f;" d="M0 304l1-18c1-11 4-27 10-45 6-19 14-40 25-64 11-23 28-48 52-72 24-25 52-48 85-69 33-22 76-41 130-58 53-17 113-29 179-36v106l-19 3c-12 2-28 7-48 13s-42 13-66 22c-24 8-47 20-69 34-23 14-43 29-61 45-18 17-31 36-39 60-5 13-7 28-7 43 0 10 1 20 3 30l2 13c1 8 4 18 8 31 5 13 12 28 20 44s20 32 36 49c15 17 33 32 54 47 20 14 47 27 79 37 33 11 68 17 107 20v126l-26-3c-18-2-41-7-70-13-29-7-60-16-95-26-34-11-69-26-103-45-35-18-66-40-94-64-29-24-52-55-69-91-17-37-26-76-25-119zM522-58l146 80v944l-146-100v-924zM702 547v118l54-5c36-4 79-14 128-32 50-18 88-41 115-71l110 63v-251l-321 80 85 35-21 16c-15 10-37 21-66 32-26 9-52 15-78 15h-6z" horiz-adv-x="1108" />
<glyph unicode="&#x70;" d="M388 885c150 27 277 50 282 50h9v-966l-9 2c-119 21-552 98-554 98s-3 126-3 383c0 212 1 384 1 384 1 0 124 22 274 49zM427 654c-33 5-69 1-93-11-66-34-80-137-25-193 7-7 26-22 42-32 34-23 44-36 46-57 1-12 0-17-5-25-9-12-20-17-38-17-23 1-45 10-63 26l-15 14v-83l9-6c24-14 38-17 77-18 34 0 38 1 53 7 40 19 60 60 57 114-3 45-23 73-76 109-17 11-35 25-41 31-27 30-6 75 36 75 14 0 40-8 54-17l13-8v82l-7 3c-4 2-15 4-24 6zM767 796c13 6 19 7 37 6 51-2 88-42 88-94l1-18 20-12c48-25 86-66 109-114l8-17 12 1c8 1 19 0 31-4 60-18 86-91 52-144-17-27-55-47-83-44l-12 2-11-23c-24-46-65-88-108-109l-18-10v-19c-1-27-9-47-27-66-21-21-36-27-65-28-27 0-45 7-60 22l-9 8v131l9 8c33 27 83 29 115 2 14-12 19-12 48 7 27 18 53 46 68 75l12 24-7 9c-31 40-30 89 1 128l6 7-12 24c-16 32-52 69-83 85l-20 10-8-8c-5-5-17-12-26-16-29-13-66-8-92 13l-11 9v65c0 48 0 67 3 70 7 8 16 14 32 20z" horiz-adv-x="1182" />
<glyph unicode="&#x72;" d="M342 697c5-107-14-201 22-289 14-33 33-65 57-92 70-80 110-74 178 11 86 109 57 233 62 368-46-25-86-40-118-66-32-25-49-28-81 1-30 27-72 41-120 67zM82 253c156 78 178 241 153 429-193-29-280-269-153-429zM771 684c0-75-7-149 2-220 10-82 53-150 124-198 22-15 33-12 48 11 98 158 13 365-174 407zM715 313c-33-41-71-88-111-138 76-34 151-32 224 0-40 48-78 95-113 138zM403 175c-41 51-78 96-111 137-35-42-72-89-111-137 75-32 150-33 222 0z" />
<glyph unicode="&#x73;" d="M386 933c48 24 75 25 100 5 10-8 29-17 43-19 27-6 67-46 76-74 5-15 9-17 30-13 20 4 28 1 55-26 28-28 38-33 77-36 36-4 44-7 47-21 2-10 16-100 31-202s38-255 50-341c13-85 23-160 23-167 0-9-33-19-150-44l-151-33-276 52c-153 28-280 54-283 57-4 3 2 73 13 156 11 82 27 205 35 273 24 192 15 171 81 191l55 18 22 59c29 82 71 139 122 165zM435 889l28 25h-22c-38 0-83-35-116-93-18-31-36-84-31-89 3-3 18 0 36 4 28 7 32 12 40 41 13 50 34 86 65 112zM502 599c-4 4-30 9-57 10-120 7-206-65-207-174 0-50 15-81 58-113 93-74 35-147-64-82-22 14-22 13-36-32-11-36-11-36 12-56 13-11 42-24 66-31 101-30 183 23 194 125 7 62-18 107-88 158-34 25-42 35-42 54 0 33 29 49 76 44 20-2 42-6 48-9 9-3 16 7 30 48 9 30 13 55 10 58z" horiz-adv-x="976" />
<glyph unicode="&#x74;" d="M0 268c0-46 4-71 13-76 4 2 8 13 11 32 3 20 5 34 5 44 0 9-2 23-5 43s-7 31-11 34c-4-3-7-13-9-32-3-19-4-34-4-45zM66 268c0-17 1-41 5-74 3-32 5-52 6-59 0-5 2-8 6-8 3 0 5 3 6 8 1 8 3 28 7 60 3 32 5 56 5 73 0 4-4 50-12 138-1 4-3 6-6 6-4 0-6-2-6-6-1-8-3-29-6-63-4-33-5-58-5-75zM148 268c0-18 2-44 6-80 3-35 5-55 5-60s2-8 7-8 8 3 8 8c8 83 11 129 11 140 0 10-3 54-11 131 0 6-3 9-8 9s-7-3-7-9c0-4-2-22-5-56-4-34-6-59-6-75zM243 268c0-2 3-48 9-139 0-6 3-10 9-10 7 0 10 4 10 10 0 5 2 25 5 60 4 35 6 61 6 79 0 34-2 84-5 149s-5 103-6 114c0 7-3 10-10 10-6 0-9-3-9-10-1-20-2-48-4-84-1-35-3-68-4-97s-1-56-1-82zM339 268c0-18 1-43 4-76 2-33 3-53 3-60 1-9 6-13 12-13 7 0 11 4 13 13 0 9 2 30 4 62 3 32 4 57 4 74 0 37-1 89-4 158-2 69-4 115-4 137-2 8-6 12-13 12-6 0-11-4-12-12-1-17-2-61-4-132s-3-126-3-163zM436 268c0-2 2-46 6-134 2-10 7-15 15-15s13 5 14 16v-1c4 88 6 132 6 134 0 27 0 56-1 87-1 30-1 65-2 102-1 38-2 67-3 87-1 10-6 16-14 16s-13-6-15-16c0-20-1-49-2-87-1-37-2-72-3-102 0-31-1-60-1-87zM534 267c0-1 2-44 6-130 1-12 6-18 16-18s15 6 16 18c5 86 7 129 7 130 0 2-2 122-7 359-1 12-6 19-16 19s-15-7-16-19c-4-237-6-357-6-359zM615 484c0-56 1-119 1-187v-159c0-5 2-10 5-14s7-6 11-6h402c40 0 74 16 103 47 28 31 42 69 42 113s-15 82-43 113-62 47-102 47c-18 0-37-5-56-14-6 73-33 134-82 183-49 50-107 74-173 74-6 0-15 0-25-2-11-1-23-3-35-5-13-3-25-7-34-12-9-6-13-12-13-18 0-50-1-103-1-160z" horiz-adv-x="1181" />
<glyph unicode="&#x75;" d="M2 592c-1-7-2-14-2-21 0-10 1-21 4-33 4-20 11-40 22-59 10-19 25-34 46-44 13-7 28-11 44-11 9 0 17 1 26 3 26 6 46 17 61 34 16 16 25 36 29 59 4 22 6 40 6 54v6c0 12-1 23-4 34-2 26-16 52-41 80-24 24-50 37-79 37h-9l-9-2c-6-1-14-4-23-10-10-5-19-12-29-21s-18-23-26-41c-8-19-13-40-16-65zM68 94l11-35c7-23 23-47 47-70 23-22 50-34 82-34h3c11-2 23-3 37-2 13 0 28 1 45 2 33 4 55 7 67 9s21 3 28 5l26 4c15 3 33 4 56 4h14c30-1 57-5 81-13 42-14 80-21 115-21s62 4 81 12 36 18 51 32 24 24 28 30 7 11 8 15l6 16c3 10 7 23 9 40 3 17 4 34 4 53s-4 38-13 59c-10 20-23 37-41 50-37 30-74 62-108 98-35 36-58 61-69 74-10 13-18 24-24 32-24 37-51 63-81 79-23 12-46 18-67 18-6 0-11 0-18-1-26-4-51-13-73-28s-39-33-51-55c-14-24-31-46-51-67-19-21-38-39-54-53-17-14-26-22-28-23l-26-21c-18-15-34-30-50-47-15-16-28-39-39-69-7-19-11-37-11-57 0-12 2-24 5-36zM213 200l8 21c5 14 15 28 31 42s34 21 54 21h70v85l58-1v-314h-130c-39 8-66 27-81 56-8 20-12 41-12 62 0 9 1 19 2 28zM238 808c0-43 10-81 32-111 21-31 47-46 78-46s57 15 78 46c22 30 33 68 33 111 0 44-11 81-33 112-21 31-47 46-78 46s-57-15-78-46c-22-31-32-68-32-112zM274 150l5-11c2-8 8-15 15-22 8-8 18-11 29-11h52v128h-57c-19-6-33-18-39-36-5-12-7-22-7-32 0-5 1-11 2-16zM466 111v166l61 1v-149l1-4c2-2 4-5 8-9 4-3 9-5 15-6h61v167h65v-222h-150l-15 5c-10 3-20 10-31 19-10 9-15 20-15 32zM520 799c-1-11-2-21-2-31 1-29 6-55 17-76 13-30 39-47 77-53 5 0 10-1 15-1 31 1 58 15 82 41 26 32 43 66 49 104 0 6 1 12 1 18 0 26-9 52-26 79-21 33-46 53-76 59-4 1-9 1-13 1-24 0-48-14-74-42-30-33-46-66-50-99zM702 502c0-20 1-36 4-49 2-14 6-29 14-46 7-16 20-29 39-37 17-7 38-11 64-11h6c13 0 25 1 36 4 11 4 20 8 27 14 8 6 14 13 20 19 6 7 10 15 13 24 3 10 6 18 8 25s3 15 4 26 1 18 1 23v35c0 9-2 21-6 34s-11 26-19 41c-9 15-22 27-39 37s-38 15-61 15c-74 0-111-51-111-154z" horiz-adv-x="936" />
<glyph unicode="&#x77;" d="M0 451c0-93 23-179 69-257 45-79 107-141 186-186 78-46 164-69 257-69s179 23 257 69c79 45 141 107 186 186 46 78 69 164 69 257s-23 179-69 257c-45 79-107 141-186 186-78 46-164 69-257 69s-179-23-257-69c-79-45-141-107-186-186-46-78-69-164-69-257zM40 451c0 68 14 132 41 193l225-618c-80 38-144 96-193 172-49 77-73 161-73 253zM117 710c43 66 99 117 169 156 69 38 145 57 226 57 124 0 230-41 319-124 0 0-1 0-3 1h-3c-22 0-41-8-56-25-16-17-24-36-24-59 0-7 1-14 3-21 1-7 4-15 8-24 4-10 7-16 9-20s7-12 14-24 11-19 13-21c26-44 39-88 39-131 0-22-12-73-36-153l-47-158-170 508 53 5c8 1 13 5 16 12 3 6 2 13-1 19-4 6-10 9-18 8-51-4-93-6-126-6l-124 6c-8 1-14-2-18-8s-4-13-2-19c3-7 9-11 17-12 16-1 33-3 49-5l74-202-104-309-172 511 54 5c9 1 14 5 17 12 3 6 2 13-2 19-3 6-9 9-18 8-51-4-93-6-126-6h-30zM379-3l141 413 146-398 3-6c-50-18-102-27-157-27-46 0-91 6-133 18zM750 42l144 418c24 70 36 126 36 169 0 18-1 34-3 48 38-69 57-144 57-226 0-85-21-164-63-237-43-73-100-130-171-172z" />
<glyph unicode="&#x78;" d="M617 658c110 0 199-89 199-198 0-110-89-199-199-199-76 0-142 43-176 106-33-63-99-106-175-106-109 0-197 87-199 195v0 330c1 22 18 39 40 39s39-17 40-39v0-167c33 25 74 39 119 39 76 0 142-42 175-105 34 63 100 105 176 105zM266 341c66 0 119 53 119 119 0 65-53 119-119 119s-119-54-119-119c0-66 53-119 119-119zM617 341c66 0 119 53 119 119 0 65-53 119-119 119s-119-54-119-119c0-66 53-119 119-119zM1083 324v-1c12-17 9-41-8-54-18-14-42-10-56 7l-87 117-88-117c-14-17-38-21-55-7-18 13-21 37-9 54l102 137-102 136c-12 17-9 42 9 55 17 13 41 9 55-8l88-117 87 117c14 17 38 21 56 8 17-13 20-38 8-55l-102-136z" horiz-adv-x="1152" />
<glyph unicode="&#x79;" d="M53-40l32-15h402c437 0 430-1 468 40 11 12 23 34 27 50 5 19 8 157 8 404 0 309-2 381-11 411-10 36-35 65-66 82-11 6-137 8-424 8-438 0-427 1-463-38-39-41-39-40-39-466v-394l17-32c12-24 25-37 49-50zM304 78c-4-17-5-17-98-17-51 0-95 2-97 5-3 2-5 171-5 374v369h763v-748h-188l-14 27c-18 36-35 40-195 37-143-2-156-6-166-47zM454 218c20-14 37-15 59-4 25 13 27 20 27 92 0 37 3 67 6 67 4 0 33-14 66-32 32-19 67-33 75-33 27 0 58 37 55 65-2 23-8 27-70 61-77 42-78 36 13 87 45 24 55 34 57 50 3 24-32 71-52 71-7 0-44-17-82-37l-68-37v68c0 87-5 95-58 92l-40-2-4-78-4-79-60 37c-78 46-94 47-123 2-27-40-24-48 29-78 21-11 50-28 66-38l28-18-65-39c-36-22-69-44-73-49-7-8-4-18 13-44 28-45 49-46 121-1 29 18 57 32 61 32s7-30 7-72c0-67 1-73 16-83z" horiz-adv-x="978" />
<glyph unicode="&#xe8;" d="M0 460c0-69 14-136 41-198 54-128 144-219 271-274 63-27 129-41 199-41s136 14 199 41c125 54 216 145 271 274 27 64 41 131 41 198 0 68-14 134-41 199-55 128-146 218-271 271-63 28-129 41-199 41s-136-13-199-41c-127-54-217-144-271-271-27-63-41-129-41-199zM80 460c0 58 11 114 34 168 23 52 54 98 92 137 40 39 86 70 137 92 56 23 112 34 168 34 57 0 112-11 167-34 53-23 99-53 137-92 40-39 70-85 92-137 23-54 34-110 34-168 0-95-28-181-84-256-57-76-130-129-218-161v82c0 40-14 70-42 89 34 3 65 10 93 20 34 12 61 29 81 51 38 39 56 97 56 173 0 51-17 95-51 131 15 41 14 84-5 131l-12 1c-10 2-25-2-47-10-24-9-48-23-75-41-42 11-84 17-124 17s-81-6-123-17c-33 22-62 37-89 45-10 4-19 5-26 5h-20c-19-47-21-90-5-131-34-36-51-80-51-131 0-98 31-166 93-204 24-15 54-26 89-32 18-4 34-7 48-8-27-18-41-48-41-89v-82c-91 32-165 85-222 159-57 76-86 162-86 258z" />
<glyph unicode="&#xe9;" d="M384.783 687.871c223.402 3.335 446.804 2.86 670.207 0.477 1.388-43.842 4.626-131.526 6.014-175.369-220.628-8.102-441.717-4.291-662.807-5.72-4.626 60.045-9.251 120.091-13.413 180.612v0 0zM387.562 380.498c221.088-0.478 443.567 14.772 664.657-6.673 5.549-56.233 5.549-113.419 6.014-170.125-222.478 0.478-444.493 0.478-666.969 0.952-1.387 58.615-2.775 117.229-3.703 175.848v0 0z" horiz-adv-x="1472" />
<glyph unicode="&#xec;" d="M0-74h669v425h-81v-342h-513l3 343-78 1v-427zM126 150v-85h401v85h-401zM127 217l402-39 9 87-403 39zM148 394l389-110 24 84-389 110zM221 599l345-208 46 74-346 209zM392 809l235-328 71 51-235 329zM650 935l67-398 86 14-67 399z" horiz-adv-x="802" />
</font>
</defs>
</svg>
