<svg width="210" height="40" viewBox="0 0 210 40" fill="none" xmlns="http://www.w3.org/2000/svg">
    <path
        d="M176.187 12.582V18.725H168.218V12.582H166.531V26.8754H168.218V20.2908H176.187V26.8754H177.874V12.582H176.187Z"
        fill="#12239E" />
    <path
        d="M186.311 27.1766C189.885 27.1766 191.932 25.149 191.932 21.5756V12.582H190.246V21.5756C190.246 24.3861 188.801 25.6509 186.311 25.6509C183.822 25.6509 182.377 24.3861 182.377 21.5756V12.582H180.69V21.5756C180.69 25.149 182.738 27.1766 186.311 27.1766Z"
        fill="#12239E" />
    <path
        d="M203.153 19.4477C204.357 18.8053 205.04 17.7413 205.04 16.316C205.04 14.2884 203.655 12.582 200.684 12.582H194.741V26.8754H200.985C204.036 26.8754 205.622 25.2694 205.622 22.8604C205.622 21.4351 204.919 20.1102 203.153 19.4477ZM200.563 14.1077C202.47 14.1077 203.394 15.0312 203.394 16.3762C203.394 17.9019 202.47 18.8254 200.563 18.8254H196.428V14.1077H200.563ZM200.904 25.3497H196.428V20.331H200.884C202.791 20.331 203.936 21.1139 203.936 22.8604C203.936 24.4062 202.912 25.3497 200.904 25.3497Z"
        fill="#12239E" />
    <g clip-path="url(#clip0_932_69392)">
        <path
            d="M9.69922 9.36051C11.16 9.50314 12.5601 10.0166 13.7667 10.8522C18.591 14.0974 15.6659 18.9944 14.6981 19.7221C16.3644 19.5402 19.6315 18.6233 19.9298 14.3376C20.3591 8.18173 14.7563 5.37305 14.7563 5.37305H14.7054C12.6662 6.15558 10.918 7.54802 9.69922 9.36051Z"
            fill="url(#paint0_radial_932_69392)" />
        <path
            d="M2.23353 12.6508V12.6944C1.89927 14.7946 2.20346 16.9468 3.1067 18.8721C3.96811 17.6358 5.13675 16.6452 6.49749 15.9979C11.7219 13.4512 14.5015 18.4428 14.7344 19.6943C15.4038 18.1299 16.1023 15.0156 12.6024 12.6581C11.2456 11.7534 9.66269 11.2468 8.03281 11.1955C6.00039 11.1166 3.9879 11.6216 2.23353 12.6508"
            fill="url(#paint1_radial_932_69392)" />
        <path
            d="M7.24845 17.6272C1.69656 20.334 2.06766 26.5844 2.06766 26.5844V26.6354C3.76258 28.0067 5.83769 28.8246 8.01247 28.9784C7.48233 27.7018 7.26047 26.3183 7.36487 24.94C7.77235 19.1553 13.4698 19.1989 14.6776 19.7228C14.1998 18.9454 13.5485 18.2892 12.7746 17.8057C12.0007 17.3222 11.1254 17.0245 10.2172 16.936C9.17533 16.907 8.14335 17.145 7.21934 17.6272"
            fill="url(#paint2_radial_932_69392)" />
        <path
            d="M9.64536 25.093C9.17239 31.2488 14.8116 34.0502 14.8116 34.0502H14.8625C16.953 33.2503 18.7362 31.8085 19.956 29.9318C18.463 29.7977 17.0296 29.2815 15.7939 28.4328C10.9769 25.1876 13.8147 20.487 14.717 19.7012C13.007 19.9267 9.96552 20.8217 9.62353 25.0711"
            fill="url(#paint3_radial_932_69392)" />
        <path
            d="M22.7902 23.0822C17.5658 25.6289 14.7862 20.4918 14.7134 19.6914C13.9858 21.314 13.4765 24.3992 16.86 26.684C21.9535 30.133 27.207 26.684 27.207 26.684V26.6404C27.5569 24.4275 27.1978 22.1607 26.181 20.1644C25.3143 21.4161 24.1354 22.4195 22.7611 23.0749"
            fill="url(#paint4_radial_932_69392)" />
        <path
            d="M21.8883 14.4674C21.8437 15.8553 21.2827 17.1766 20.315 18.1726C19.3473 19.1685 18.0426 19.7674 16.6566 19.8519C16.0007 19.9249 15.337 19.8755 14.6992 19.7064C15.7761 21.0961 18.1482 23.1772 21.8519 21.3654C27.3747 18.6731 27.0254 12.4154 27.0254 12.4154V12.3645C25.3255 10.9873 23.2416 10.169 21.0588 10.0215C21.7209 11.4049 22.007 12.9383 21.8883 14.4674"
            fill="url(#paint5_radial_932_69392)" />
    </g>
    <path
        d="M81.1255 24.0415C81.35 24.5111 81.6911 24.9154 82.1162 25.2157C82.5591 25.5207 83.0579 25.7352 83.584 25.8468C84.1869 25.9762 84.802 26.0401 85.4186 26.0376C85.8298 26.0339 86.2389 25.9797 86.6368 25.8762C87.0686 25.7702 87.4818 25.5995 87.8624 25.3698C88.2394 25.1381 88.5642 24.8308 88.8164 24.4672C89.0744 24.0732 89.205 23.6095 89.1907 23.1389C89.1993 22.7762 89.1079 22.4182 88.9265 22.1041C88.7357 21.811 88.4857 21.5611 88.1926 21.3702C87.898 21.1689 87.5801 21.0038 87.2459 20.8786C86.912 20.7567 86.5714 20.6538 86.2259 20.5703L83.1069 19.7484C82.6961 19.6396 82.2918 19.5073 81.8961 19.3521C81.518 19.1995 81.1701 18.9809 80.8687 18.7063C80.5602 18.4343 80.3105 18.1022 80.1348 17.7303C79.9463 17.2825 79.8562 16.7995 79.8706 16.3139C79.8815 15.9008 79.9481 15.491 80.0687 15.0957C80.2123 14.6064 80.463 14.1551 80.8026 13.7747C81.2142 13.3274 81.7139 12.9701 82.2703 12.7253C83.0741 12.4041 83.9375 12.2589 84.8022 12.2997C85.4944 12.2949 86.1839 12.3888 86.8496 12.5785C87.4539 12.7527 88.021 13.0362 88.5228 13.4152C89.02 13.8039 89.4191 14.3039 89.688 14.8749C89.9569 15.4459 90.0882 16.072 90.0713 16.7029H88.7137C88.6895 16.214 88.5539 15.7371 88.3174 15.3085C88.1075 14.911 87.8147 14.5631 87.4587 14.2885C87.0962 14.0048 86.6827 13.793 86.2405 13.6647C85.7644 13.523 85.2696 13.4537 84.7728 13.4592C84.3187 13.4588 83.8659 13.508 83.4225 13.606C83.0184 13.6973 82.6334 13.8587 82.285 14.083C81.9556 14.3074 81.684 14.6067 81.4924 14.9563C81.2835 15.3696 81.1825 15.8291 81.1989 16.2919C81.1895 16.5919 81.2472 16.8903 81.3677 17.1652C81.4767 17.405 81.637 17.618 81.8374 17.789C82.0403 17.9688 82.2739 18.1105 82.5272 18.2073C82.7946 18.3215 83.0723 18.41 83.3565 18.4715L86.8496 19.3301C87.3391 19.4552 87.8177 19.6196 88.2807 19.8218C88.7061 20.0072 89.1018 20.2545 89.4549 20.5557C89.7946 20.8402 90.0677 21.196 90.2548 21.5977C90.4524 22.0614 90.5499 22.5615 90.541 23.0655C90.5374 23.2814 90.5227 23.4969 90.4969 23.7113C90.4524 24.0017 90.371 24.2853 90.2548 24.5552C90.1373 24.891 89.9796 25.2114 89.7851 25.5092C89.518 25.8421 89.1922 26.1231 88.8237 26.3385C88.3666 26.6082 87.872 26.8085 87.356 26.9329C85.8725 27.2648 84.3318 27.2447 82.8574 26.8742C82.1727 26.7067 81.532 26.3938 80.9787 25.9569C80.4668 25.5521 80.0655 25.0245 79.8119 24.4231C79.5218 23.7069 79.4013 22.9333 79.4596 22.1628H80.8173C80.7673 22.8047 80.873 23.4492 81.1255 24.0415Z"
        fill="black" />
    <path
        d="M94.9217 12.5996V21.406C94.9075 22.1181 95.0015 22.8283 95.2005 23.5122C95.3612 24.0416 95.6426 24.5264 96.0225 24.9285C96.3905 25.2995 96.8442 25.5742 97.3434 25.7285C97.9112 25.9038 98.5032 25.988 99.0974 25.978C99.6988 25.9884 100.298 25.9042 100.873 25.7285C101.373 25.5742 101.826 25.2995 102.194 24.9285C102.574 24.5278 102.854 24.0423 103.009 23.5122C103.214 22.8295 103.311 22.1187 103.295 21.406V12.5996H104.653V21.7216C104.654 22.4307 104.548 23.1359 104.337 23.8131C104.145 24.4401 103.819 25.0183 103.383 25.5083C102.905 26.0209 102.318 26.4196 101.666 26.6751C100.025 27.2525 98.2359 27.2525 96.5949 26.6751C95.9414 26.4214 95.3542 26.0224 94.8776 25.5083C94.4303 25.0103 94.095 24.4223 93.8943 23.7837C93.6862 23.1062 93.5823 22.4009 93.586 21.6922V12.5996H94.9217Z"
        fill="black" />
    <path
        d="M114.936 12.5997C115.499 12.5964 116.06 12.6704 116.602 12.8199C117.101 12.9506 117.57 13.1774 117.982 13.4877C118.383 13.7944 118.704 14.1918 118.921 14.6472C119.168 15.1672 119.288 15.7378 119.274 16.3131C119.284 17.1561 119.027 17.9807 118.54 18.6688C118.297 19.0082 117.989 19.2959 117.633 19.5151C117.278 19.7343 116.883 19.8807 116.47 19.9457V19.9897C116.893 20.0352 117.302 20.1649 117.674 20.3713C117.967 20.543 118.218 20.7788 118.408 21.0612C118.611 21.3537 118.755 21.6826 118.833 22.0299C118.919 22.4215 118.975 22.8188 119.002 23.2187C119.002 23.4536 119.002 23.7471 119.002 24.0994C119.002 24.4516 119.046 24.7892 119.083 25.1415C119.121 25.4785 119.185 25.8122 119.274 26.1395C119.335 26.4073 119.455 26.658 119.626 26.8734H118.158C118.073 26.7193 118.012 26.5536 117.975 26.3817C117.926 26.1864 117.891 25.9877 117.872 25.7873C117.872 25.5745 117.835 25.3763 117.821 25.1708C117.806 24.9653 117.821 24.8039 117.821 24.6571C117.821 24.1508 117.747 23.6444 117.688 23.1454C117.64 22.6813 117.511 22.2292 117.307 21.8097C117.123 21.4215 116.833 21.0933 116.47 20.863C116.026 20.6062 115.513 20.4934 115.003 20.5401H109.865V26.8734H108.508V12.5997H114.936ZM114.841 19.366C115.241 19.3701 115.638 19.3056 116.015 19.1751C116.374 19.0565 116.707 18.8724 116.999 18.6321C117.281 18.3903 117.511 18.093 117.674 17.7588C117.844 17.3935 117.929 16.9947 117.923 16.5919C117.948 16.2142 117.895 15.8354 117.769 15.4784C117.643 15.1215 117.446 14.7938 117.189 14.5151C116.872 14.2457 116.504 14.042 116.107 13.916C115.71 13.7901 115.292 13.7442 114.878 13.7812H109.799V19.366H114.841Z"
        fill="black" />
    <path
        d="M132.572 12.5996V13.7591H124.088V18.9108H132.036V20.063H124.088V25.6991H132.674V26.8586H122.73V12.5996H132.572Z"
        fill="black" />
    <path d="M145.33 12.5996V13.7591H140.355V26.8586H138.997V13.7591H134.051V12.5996H145.33Z" fill="black" />
    <path
        d="M146.055 12.5996H147.655L152.344 19.8282L157.019 12.5996H158.633L153.004 20.9877V26.8586H151.647V20.9877L146.055 12.5996Z"
        fill="black" />
    <path
        d="M34.2969 14.5001C35.4662 13.0911 37.1688 12.3866 39.4046 12.3866C40.3415 12.3649 41.273 12.5347 42.1419 12.8856C42.8727 13.1827 43.5329 13.6303 44.0793 14.1993C44.5984 14.7545 44.9915 15.4154 45.2315 16.1367C45.4847 16.8986 45.6111 17.6969 45.6058 18.4997C45.6058 18.6979 45.6058 18.896 45.6058 19.0795C45.6058 19.2629 45.6058 19.4684 45.5544 19.6666L42.3401 19.6372C41.2833 19.6372 40.2119 19.6372 39.1331 19.6372C38.4726 19.6372 37.8195 19.6372 37.1737 19.6372H35.2069C35.1962 19.7862 35.1962 19.9358 35.2069 20.0849V20.4738C35.2006 21.2216 35.3171 21.9654 35.5518 22.6754C35.7602 23.3241 36.1028 23.9217 36.5572 24.4293C37.0077 24.9303 37.5609 25.3283 38.179 25.5962C38.8727 25.8989 39.624 26.0467 40.3806 26.0292C40.7969 26.0288 41.2113 25.9745 41.6135 25.8677C42.0274 25.7614 42.4303 25.6164 42.8171 25.4347C43.2113 25.2504 43.5873 25.0293 43.9399 24.7743C44.2757 24.5302 44.5834 24.2496 44.8572 23.9376L45.0187 24.0404L44.8425 25.5081C44.1751 26.0259 43.4327 26.4392 42.6409 26.7337C41.7563 27.0761 40.8155 27.2504 39.8669 27.2474C38.8666 27.257 37.8725 27.088 36.9315 26.7484C36.0747 26.4381 35.2929 25.9511 34.6367 25.3189C33.9805 24.6868 33.4647 23.9236 33.1227 23.079C32.7475 22.1891 32.5505 21.2341 32.543 20.2683C32.543 17.8123 33.1276 15.8896 34.2969 14.5001ZM37.592 13.869C37.0886 14.1982 36.6589 14.628 36.3297 15.1313C36.0004 15.6479 35.7529 16.2123 35.5958 16.8045C35.437 17.3682 35.3313 17.9456 35.2803 18.5291L37.2177 18.5878C37.8855 18.5878 38.5386 18.5878 39.1771 18.5878C39.8156 18.5878 40.5054 18.5878 41.1879 18.5878L43.162 18.5291C43.1593 17.9567 43.1151 17.3852 43.0299 16.8192C42.9405 16.2357 42.7571 15.6707 42.4868 15.1459C42.2154 14.6313 41.8255 14.1886 41.3493 13.8543C40.7886 13.4936 40.1293 13.3166 39.4633 13.348C38.8029 13.3257 38.151 13.5021 37.592 13.8543"
        fill="#F16823" />
    <path
        d="M48.391 16.4896C48.7925 15.6016 49.3807 14.8107 50.1156 14.1706C50.831 13.5606 51.6622 13.1014 52.5593 12.8203C53.4688 12.5342 54.4166 12.3882 55.37 12.3873C56.363 12.3768 57.3522 12.5128 58.3055 12.7909C58.987 12.9672 59.626 13.2792 60.1842 13.7082C60.0399 14.0132 59.9149 14.327 59.8099 14.6476C59.6971 14.9875 59.6016 15.3328 59.5237 15.6823H59.2815C59.1219 15.3988 58.9325 15.1331 58.7164 14.8898C58.4604 14.612 58.1721 14.3656 57.8578 14.1559C57.5184 13.9167 57.1512 13.7196 56.7644 13.5688C56.3431 13.4179 55.8982 13.3434 55.4507 13.3486C54.6473 13.3264 53.8501 13.4949 53.1244 13.8403C52.4942 14.1689 51.9548 14.6479 51.5539 15.2347C51.1237 15.8543 50.8195 16.5525 50.6586 17.2895C50.4615 18.1288 50.3654 18.9886 50.3724 19.8507C50.3724 21.9055 50.8103 23.4564 51.686 24.5034C52.1691 25.0416 52.7684 25.4628 53.4385 25.7349C54.1086 26.007 54.8319 26.1229 55.5535 26.0739C55.9636 26.0621 56.3705 25.998 56.7644 25.8831C57.1882 25.7722 57.601 25.6223 57.9973 25.4354C58.3957 25.2503 58.7764 25.0292 59.1347 24.7749C59.4683 24.5308 59.7735 24.2502 60.0447 23.9383L60.1988 24.0264C60.0966 24.5096 60.0353 25.0006 60.0154 25.4941C59.3479 26.0119 58.6055 26.4252 57.8138 26.7197C56.9293 27.0626 55.9884 27.2369 55.0398 27.2334C54.163 27.2304 53.291 27.1044 52.4492 26.8591C51.5847 26.6123 50.7837 26.1817 50.1009 25.5969C49.3625 24.9718 48.7732 24.1895 48.3763 23.3072C47.9214 22.2183 47.7038 21.045 47.7378 19.8654C47.7061 18.7106 47.9291 17.5631 48.391 16.5043"
        fill="#F16823" />
    <path
        d="M63.1456 16.3862C63.5267 15.5003 64.1038 14.7125 64.8335 14.0819C65.5238 13.4972 66.325 13.0579 67.1892 12.7902C68.8793 12.2522 70.6948 12.2522 72.3849 12.7902C73.2409 13.0615 74.0342 13.5006 74.7186 14.0819C75.4505 14.712 76.0301 15.4999 76.4138 16.3862C76.8713 17.4822 77.0914 18.6628 77.0596 19.85C77.0908 21.0349 76.8707 22.2129 76.4138 23.3065C76.0301 24.1929 75.4505 24.9807 74.7186 25.6109C74.0413 26.1923 73.2447 26.6182 72.3849 26.8584C71.5365 27.0945 70.6603 27.2154 69.7797 27.218C68.9041 27.2134 68.0329 27.0925 67.1892 26.8584C66.3214 26.6216 65.5169 26.1956 64.8335 25.6109C64.1038 24.9803 63.5267 24.1924 63.1456 23.3065C62.6853 22.2139 62.465 21.0352 62.4998 19.85C62.4644 18.6625 62.6847 17.4812 63.1456 16.3862V16.3862ZM65.3472 22.2571C65.4694 22.9891 65.7177 23.6942 66.081 24.3413C66.4353 24.9491 66.941 25.4547 67.5488 25.809C68.2307 26.1563 68.9851 26.3374 69.7503 26.3374C70.5156 26.3374 71.27 26.1563 71.9519 25.809C72.5581 25.4526 73.0633 24.9475 73.4197 24.3413C73.783 23.6942 74.0313 22.9891 74.1535 22.2571C74.3022 21.4585 74.3759 20.6477 74.3737 19.8354C74.3889 19.0317 74.33 18.2284 74.1976 17.4356C74.0753 16.7037 73.827 15.9985 73.4637 15.3514C73.1073 14.7453 72.6021 14.2401 71.996 13.8837C71.3141 13.5364 70.5596 13.3553 69.7944 13.3553C69.0291 13.3553 68.2747 13.5364 67.5928 13.8837C66.985 14.238 66.4793 14.7436 66.1251 15.3514C65.7617 15.9985 65.5134 16.7037 65.3912 17.4356C65.2362 18.2359 65.16 19.0495 65.1637 19.8647C65.1605 20.6774 65.2367 21.4885 65.3912 22.2865"
        fill="#F16823" />
    <defs>
        <radialGradient id="paint0_radial_932_69392" cx="0" cy="0" r="1" gradientUnits="userSpaceOnUse"
            gradientTransform="translate(12.5306 12.5652) rotate(-46.6135) scale(9.06047 14.2345)">
            <stop offset="0.464015" stop-color="#244297" />
            <stop offset="0.827804" stop-color="#1EB7DF" />
        </radialGradient>
        <radialGradient id="paint1_radial_932_69392" cx="0" cy="0" r="1" gradientUnits="userSpaceOnUse"
            gradientTransform="translate(9.73436 17.8882) rotate(-76.2392) scale(9.10079 14.0836)">
            <stop offset="0.370549" stop-color="#244297" />
            <stop offset="0.827804" stop-color="#1EB7DF" />
        </radialGradient>
        <radialGradient id="paint2_radial_932_69392" cx="0" cy="0" r="1" gradientUnits="userSpaceOnUse"
            gradientTransform="translate(2.06814 19.1506) rotate(26.1391) scale(10.8514 11.712)">
            <stop offset="0.370549" stop-color="#7BBF4A" />
            <stop offset="0.827804" stop-color="#179E64" />
        </radialGradient>
        <radialGradient id="paint3_radial_932_69392" cx="0" cy="0" r="1" gradientUnits="userSpaceOnUse"
            gradientTransform="translate(7.57289 32.4098) rotate(-43.4) scale(11.4212 13.7841)">
            <stop offset="0.370549" stop-color="#7BBF4A" />
            <stop offset="0.827804" stop-color="#179E64" />
        </radialGradient>
        <radialGradient id="paint4_radial_932_69392" cx="0" cy="0" r="1" gradientUnits="userSpaceOnUse"
            gradientTransform="translate(22.6338 32.6785) rotate(-94.5739) scale(13.5732 41.4678)">
            <stop offset="0.370549" stop-color="#7BBF4A" />
            <stop offset="0.827804" stop-color="#179E64" />
        </radialGradient>
        <radialGradient id="paint5_radial_932_69392" cx="0" cy="0" r="1" gradientUnits="userSpaceOnUse"
            gradientTransform="translate(16.6804 13.2859) rotate(39.7048) scale(13.1311 23.6887)">
            <stop offset="0.370549" stop-color="#244297" />
            <stop offset="0.827804" stop-color="#1EB7DF" />
        </radialGradient>
        <clipPath id="clip0_932_69392">
            <rect width="25.3" height="28.6835" fill="white" transform="translate(2.07031 5.36914)" />
        </clipPath>
    </defs>
</svg>