<?xml version="1.0" standalone="no"?>
<!DOCTYPE svg PUBLIC "-//W3C//DTD SVG 1.1//EN" "http://www.w3.org/Graphics/SVG/1.1/DTD/svg11.dtd" >
<svg xmlns="http://www.w3.org/2000/svg">
<metadata>
This is a custom SVG font generated by IcoMoon.
<iconset grid="16"></iconset>
</metadata>
<defs>
<font id="icomoon" horiz-adv-x="512" >
<font-face units-per-em="512" ascent="480" descent="-32" />
<missing-glyph horiz-adv-x="512" />
<glyph class="hidden" unicode="&#xf000;" d="M0,480L 512 -32L0 -32 z" horiz-adv-x="0" />
<glyph unicode="&#x24;" d="M0,31.488l 99.328,456.192l 224.256,0 q 25.6,0 49.408-9.216t 43.264-28.416t 26.88-48.384t-0.256-69.12q-14.848-69.632 -65.792-109.568t-119.552-39.936l-93.696,0 l-32.256-151.552l-131.584,0 zM 51.2-24.32l 131.584,0 l 32.256,151.040l 94.208,0 q 68.608,0 119.296,39.936t 66.048,109.568q 14.336,69.12 -22.016,112.128q 16.896-37.888 6.144-87.040q-14.848-69.632 -65.792-109.568t-119.552-39.936l-93.696,0 l-32.256-151.040l-110.592,0 zM 182.784,270.080 l 42.496,0 l 21.504,93.696l 64,0 q 1.024,0 8.704-1.536q-4.096,14.848 -16.128,23.808t-28.416,8.96l-64,0 zM 246.784,270.592q 24.576,1.024 45.824,18.944t 26.88,43.008q0,1.024 0.512,3.072t 0.512,3.072l-58.368,0 z" horiz-adv-x="498.688" />
<glyph unicode="&#x2a;" d="M0,366.336q0,12.8 8.192,23.296t 20.992,13.568l 100.864,24.064q-32.256-36.864 -32.256-86.016q0-94.72 129.536-144.896q 14.336-5.632 27.648-12.544t 27.904-17.152t 23.552-23.808t 8.96-28.416q0-22.016 -17.92-34.304t-40.96-12.288q-29.696,0 -61.952,11.52t-53.76,30.976l-40.448-91.648q 28.672-15.872 73.728-31.232q-5.12-1.024 -16.128-4.352t-19.712-5.12t-16.384-1.792q-12.8,0 -23.296,8.192t-13.568,20.992 l-83.968,351.744q-1.024,6.144 -1.024,9.216zM 214.528,342.784q0,19.456 17.92,29.952t 38.912,10.496q 25.088,0 56.32-8.96t 45.056-23.808l 31.232,87.040q-46.080,24.576 -95.232,32.256q 1.024,0 23.040,6.144t 36.608,9.216t 21.76,3.072q 12.8,0 23.296-8.192t 13.568-20.992l 83.968-351.744q 1.024-6.144 1.024-9.216q0-12.8 -8.192-23.296t-20.992-13.568l-74.24-17.408q 24.064,35.84 24.064,77.824q0,56.832 -36.096,93.44t-94.464,56.064 q-87.552,29.696 -87.552,71.68z" />
<glyph unicode="&#x2b;" d="M0,67.84q0,44.544 45.568,79.36t 110.080,34.816l 27.648,0 q-21.504,20.48 -21.504,44.032q0,14.848 8.192,29.696q-5.12-0.512 -14.848-0.512q-53.248,0 -87.040,33.28t-33.792,81.92q0,46.592 41.984,81.408t 95.744,34.816l 158.72,0 l-35.328-25.6l-50.176,0 q 24.064-9.216 37.632-34.816t 13.568-56.832q0-47.616 -45.056-82.944q-18.944-14.848 -24.576-23.552t-5.632-21.504q0-9.728 13.824-24.576t 27.648-25.088q 31.232-22.016 43.264-45.056t 12.032-57.856 q0-46.080 -41.984-80.128t-113.664-34.048q-68.096,0 -115.2,25.6t-47.104,67.584zM 57.344,84.736q0-35.328 29.952-60.16t 74.496-24.832q 60.928,0 88.32,22.528t 27.392,59.904q0,9.728 -2.048,16.384q-1.536,5.632 -3.584,10.496t-6.144,9.728t-7.168,8.192t-9.984,8.448t-10.496,7.68t-12.8,8.96t-13.312,8.96q-19.968,6.144 -39.424,6.144q-46.080,0.512 -80.64-24.064t-34.56-58.368zM 91.136,370.944 q 5.632-40.448 30.976-69.632t 56.064-29.696q 30.208-1.024 48.128,26.624t 12.8,68.096t-30.464,68.608t-56.064,29.184t-48.64-26.112t-12.8-67.072zM 375.296,358.656l0,25.6 l 102.4,0 l0,102.4 l 25.6,0 l0-102.4 l 102.912,0 l0-25.6 l-102.912,0 l0-102.912 l-25.6,0 l0,102.912 l-102.4,0 z" horiz-adv-x="606.208" />
<glyph unicode="&#x3f;" d="M 1.024,82.176q0,11.264 6.144,32.768q 11.776,44.544 44.288,80.896t 75.52,52.736q-40.448,32.256 -40.448,82.432q0,44.032 32,74.752t 76.032,30.72t 76.032-30.72t 32-74.752q0-49.664 -39.424-81.92q 54.272-19.456 90.624-65.024t 36.352-101.376q0-47.104 -37.376-54.272q-1.536-5.12 -6.656-13.312q-3.072-8.192 -12.032-14.592t-24.832-10.496t-25.344-6.144t-28.928-4.608t-19.968-2.56q-1.024,0 -3.584-0.512t-3.584-0.512l-61.44,0  q-26.112,0 -66.048,8.448t-45.568,22.784q-8.704,8.704 -12.8,21.504q-12.8,2.56 -21.504,10.752q-19.456,7.68 -19.456,43.008z" horiz-adv-x="392.704" />
<glyph unicode="&#x45;" d="M0,329.984q0,20.48 7.68,29.696q 4.608,7.168 13.312,10.752q 9.216,4.608 24.064,4.608l 48.128,0 q 7.68,0 13.312,5.632t 5.632,13.312q0,10.752 -0.512,22.528l0,30.208 q0,12.8 6.144,22.528q 7.68,10.752 25.6,15.872q 5.632,3.072 27.136,3.072l 9.728,0 q 30.208-1.024 50.176-8.704q 19.456-8.192 23.040-31.744q 13.312,0.512 24.576,0.512q 27.136,0 45.568-2.56q 49.664-6.144 66.048-12.288q 21.504-6.656 27.136-34.304q 5.12-28.16 9.216-107.52q 2.56-45.568 2.56-75.264q0-22.528 -1.536-36.352q-8.192-88.064 -22.016-130.048 q-7.168-21.504 -14.336-35.072t-14.080-21.76t-18.688-11.776t-21.76-4.352t-29.952-0.768q-55.296,0 -74.496,13.056t-19.2,54.528q0,23.040 4.864,36.608t 16.896,19.2t 23.808,6.656q 7.68,0.512 20.48,0.512l 14.336,0 q 2.048,0 2.816-0.768t 0.256-2.56t-1.28-3.84t-1.536-5.632t-0.768-6.656q0-4.608 1.024-9.472t 0.512-6.144t-3.584-1.28l-4.864,0 l-5.376,0 t-5.12-0.256t-5.12-0.768t-4.352-1.28t-4.096-2.048 t-2.816-3.072t-2.048-4.608t-0.512-5.888q0-7.168 2.048-11.776t 3.84-7.168t 9.216-3.584t 11.264-1.024l 16.64,0 q 29.184,0 37.376,6.912t 8.192,32.512q0,38.912 -9.472,52.48t-28.928,16.128q-45.056,4.608 -60.928,10.24q-27.136,10.24 -27.136,60.928q0,1.024 -1.28,1.024t-1.28-1.024q0-34.304 -9.216-61.44l-4.096-12.288q-5.632-12.8 -18.944-13.312l-3.072,0 q-12.288,0 -27.648,4.096q-65.024,8.192 -101.376,24.064q-12.288,5.632 -18.944,20.48 q-8.704,17.92 -18.176,65.792t-12.032,68.352q-2.048,16.896 -2.048,26.112zM 3.072,390.912l0,1.024 l 93.696,92.16q0,0.512 0.512,0.512l-1.536-3.072q-5.632-10.24 -5.632-24.576q0-11.264 0.512-52.736q0-5.12 -5.12-5.12l-47.616,0 q-17.408,0 -30.208-5.632q-2.56-1.536 -4.608-2.56zM 293.888,242.432q 10.752,1.536 23.552,1.536q 23.040-0.512 41.472-9.216q0,43.52 -31.232,44.544l-1.536,0 q-15.36,0 -22.528-10.24q-7.68-10.752 -9.728-26.624z" horiz-adv-x="428.544" />
<glyph unicode="&#x47;" d="M0,67.84q0,44.544 45.568,79.36t 110.080,34.816l 27.648,0 q-21.504,20.48 -21.504,44.032q0,14.848 8.192,29.696q-5.12-0.512 -14.848-0.512q-53.248,0 -87.040,33.28t-33.792,81.92q0,46.592 41.984,81.408t 95.744,34.816l 158.72,0 l-35.328-25.6l-50.176,0 q 24.064-9.216 37.632-34.816t 13.568-56.832q0-47.616 -45.056-82.944q-18.944-14.848 -24.576-23.552t-5.632-21.504q0-9.728 13.824-24.576t 27.648-25.088q 31.232-22.016 43.264-45.056t 12.032-57.856 q0-46.080 -41.984-80.128t-113.664-34.048q-68.096,0 -115.2,25.6t-47.104,67.584zM 57.344,84.736q0-35.328 29.952-60.16t 74.496-24.832q 60.928,0 88.32,22.528t 27.392,59.904q0,9.728 -2.048,16.384q-1.536,5.632 -3.584,10.496t-6.144,9.728t-7.168,8.192t-9.984,8.448t-10.496,7.68t-12.8,8.96t-13.312,8.96q-19.968,6.144 -39.424,6.144l-2.048,0 q-44.544,0 -78.336-24.064q-34.816-24.576 -34.816-58.368zM 91.136,370.944 q 5.632-40.448 30.976-69.632t 56.064-29.696l 2.048,0 q 28.672,0 46.080,26.624q 13.824,21.504 13.824,50.688q0,8.192 -1.024,17.408q-5.12,40.448 -30.464,68.608t-56.064,29.184l-2.048,0 q-29.184,0 -46.592-26.112q-13.824-20.992 -13.824-50.176q0-8.192 1.024-16.896z" horiz-adv-x="330.752" />
<glyph unicode="&#x4c;" d="M-2.56,426.24q0,25.6 17.92,42.24t 46.592,16.64q 28.16,0 45.568-16.384q 17.92-16.896 17.92-44.032q0-24.576 -17.408-40.96q-17.92-16.896 -47.104-16.896l-0.512,0 q-28.16,0 -45.568,16.896t-17.408,42.496zM 4.096-21.76l0,342.016 l 113.664,0 l0-342.016 l-113.664,0 zM 180.736-21.76l 113.664,0 l0,190.976 q0,17.92 4.096,27.648q 7.168,17.408 21.76,29.44t 36.608,12.032q 57.344,0 57.344-77.312l0-182.784 l 113.664,0 l0,196.096 q0,75.776 -35.84,114.944t-94.72,39.168 q-66.048,0 -102.912-56.832l0-1.024 l-0.512,0 l 0.512,1.024l0,48.64 l-113.664,0 q 1.024-16.384 1.024-101.888t-1.024-240.128z" horiz-adv-x="532.48" />
<glyph unicode="&#x4e;" d="M-4.608,374.528q 5.12,4.096 12.8,6.144q 7.168,2.048 12.8,2.048l 4.608,0 q 5.12,0 12.288-0.512q 11.264-0.512 16.384-0.512q 3.072,0 19.456,1.024q 8.192,0.512 14.848,0.256t 11.776-0.256q 10.24-1.024 16.384-4.096q 3.072-1.536 6.656-6.656t 5.888-9.728t 5.888-13.056t 5.12-11.008q 19.456-41.984 48.128-83.456q 1.024-1.536 3.584-5.632t 4.352-6.4t 4.608-5.888t 5.376-5.632t 5.376-4.352t 5.888-2.816t 6.144,0q 14.336,2.56 15.872,59.904q 0.512,9.728 0.512,17.92q0,37.888 -7.68,52.224 q-3.072,5.632 -7.936,8.96t-12.544,6.144t-11.776,5.376q 7.168,14.336 25.344,18.944t 49.408,4.608l 12.8,0 l 14.336,0 t 13.312-0.256t 13.824-1.536l 11.264-2.816t 9.984-4.608t 6.4-7.168q 4.608-9.216 5.632-21.504q0-3.584 0.512-7.168q0-10.24 -1.536-26.624q-2.048-21.504 -2.048-26.624q-1.536-11.776 -1.536-23.552q0-9.216 1.024-19.456q 2.048-22.528 15.36-31.232q 4.608,0.512 8.448,2.048t 7.936,5.632t 5.632,5.888t 6.4,8.448t 5.376,7.168q 24.064,31.744 48.128,83.456 l 4.608,11.52t 5.888,13.568t 6.144,9.984t 7.936,6.912q 8.192,3.584 19.456,3.584l 4.608,0 q 10.24,0 23.552-1.024q 16.384-1.024 24.064-1.024q 4.608,0 14.080,0.512t 16.64,0.768t 15.104-0.256t 13.056-3.072t 7.168-6.656q 1.536-3.072 1.536-6.656q0-14.848 -17.92-44.544q-8.704-14.848 -17.664-26.88t-23.296-29.696t-18.944-23.808q-1.024-1.024 -7.168-9.216t-8.96-12.288t-5.888-11.52t-2.56-13.568q0-4.096 1.536-7.68t 4.864-7.68t 5.12-6.144 t 6.912-6.656t 6.144-5.632q 36.352-33.28 57.344-59.904q 20.48-26.624 20.48-38.4q0-16.896 -26.112-20.992q-13.312-2.048 -27.136-2.048q-10.752,0 -22.016,1.536q-10.24,1.024 -18.944,1.024q-13.312,0 -23.040-2.56l-3.072,0 q-33.792,5.632 -71.168,48.128q-2.048,2.048 -8.704,10.496t-11.264,13.056t-11.776,8.704t-13.824,3.072q-11.776-2.048 -15.616-14.848t-4.608-30.464t-4.864-24.832q-6.656-12.288 -40.448-12.288q-14.336,0 -33.792,2.048q-39.936,4.096 -72.448,20.48 t-51.456,34.56t-41.472,47.36q-53.248,68.096 -100.864,164.864q-1.536,3.072 -5.632,11.52t-6.144,13.056t-4.864,12.032t-4.096,14.336t-1.28,13.568z" horiz-adv-x="621.056" />
<glyph unicode="&#x54;" d="M0,25.856q 15.36-1.536 30.72-1.536q 90.112,0 160.768,55.296q-41.984,0.512 -75.264,25.6t-45.568,64q 10.24-2.048 24.064-2.048q 17.92,0 34.304,4.608q-45.056,8.704 -74.496,44.288t-29.44,82.176l0,1.536 q 27.136-15.36 58.88-15.872q-26.624,17.408 -42.24,45.824t-15.616,61.696q0,34.816 17.92,65.024q 48.128-59.904 117.504-95.488t 148.736-39.68q-3.584,16.896 -3.584,29.696q0,53.248 37.888,91.136t 91.648,37.888q 55.808,0 94.208-40.96 q 44.544,9.216 81.92,31.744q-14.336-46.592 -56.32-71.68q 37.376,4.608 73.728,20.48q-24.576-38.4 -64-67.072l0-16.896 q0-51.712 -15.104-103.68t-46.080-99.328t-73.984-84.224t-103.168-58.624t-129.28-21.76q-107.008,0 -198.144,57.856z" horiz-adv-x="629.76" />
<glyph unicode="&#x56;" d="M0,348.928q 28.16,33.28 56.32,59.392t 48.896,39.68t 37.12,22.016t 24.576,11.008l 8.704,2.048q 6.144,1.024 12.288,1.024q 9.728,0 17.92-3.072q 13.312-5.12 21.76-17.664t 14.848-28.16t 11.008-36.864t 7.68-39.68t 6.912-40.704t 7.424-36.096q 16.384-64 26.368-90.88t 21.248-26.88q 12.288,0 34.048,28.416t 47.872,77.568q 13.312,24.576 13.312,46.592q0,6.656 -1.024,11.776q-4.608,26.624 -26.112,33.28q-5.632,2.048 -12.288,2.048 q-17.92,0 -42.496-13.312q 11.264,66.56 68.608,107.008q 43.52,30.72 89.088,30.72q 6.144,0 12.288-0.512q 52.224-4.096 71.168-46.080q 9.216-19.456 9.216-45.056q0-14.848 -3.072-31.232q-9.216-52.224 -35.584-106.496t-57.856-96t-67.84-79.36t-63.232-59.904t-46.336-35.072q-21.504-12.288 -40.192-12.288t-35.584,10.752t-28.672,24.576t-19.456,29.184q-9.216,19.456 -49.92,152.832t-49.408,143.616q-0.512,1.024 -2.048,2.048 t-6.912,2.304t-12.288,0t-18.688-7.168t-25.6-16.64z" horiz-adv-x="586.752" />
<glyph unicode="&#x57;" d="M0,30.976l 53.76,189.952q 17.92,10.24 43.776,15.872t 42.752,6.656l 17.408,0.512q 25.6,0 53.248-5.12q 51.712-10.24 73.728-31.232l-53.248-189.44q-18.432,14.336 -40.704,23.296t-35.072,10.496l-13.312,2.048q-17.408,1.536 -33.28,1.536q-8.192,0 -21.76-0.768t-42.752-6.912t-44.544-16.896zM 64.512,275.2l 53.76,189.952q 17.92,10.24 44.032,16.128t 43.008,6.4l 16.896,0.512q 26.112,0 53.248-5.12q 51.712-10.24 73.728-31.232l-53.248-189.952 q-18.432,14.336 -40.704,23.296t-35.072,10.496l-13.312,2.048q-17.92,1.536 -32.768,1.536q-8.192,0 -21.76-0.768t-43.008-6.656t-44.8-16.64zM 285.184,12.544l 53.248,189.952q 18.944-14.336 41.216-23.296t 35.072-10.496l 12.8-2.048q 17.408-1.536 33.28-1.536q 8.192,0 21.76,0.768t 43.008,6.656t 44.288,16.64l-53.248-189.952q-17.92-10.24 -44.032-15.872t-43.008-6.144l-16.896-1.024q-26.112,0 -53.248,5.12q-51.712,10.24 -74.24,31.232z M 346.624,255.744l 53.248,189.44q 18.944-14.336 41.216-23.296t 35.072-10.496l 12.8-2.048q 17.408-1.536 33.28-1.536q 8.192,0 21.76,0.768t 42.752,6.656t 44.544,16.64l-53.248-189.44q-17.92-10.24 -44.032-16.128t-43.52-6.4l-16.896-1.024q-26.624,0 -52.736,5.632q-51.712,9.728 -74.24,31.232z" horiz-adv-x="631.296" />
<glyph unicode="&#x59;" d="M0,423.68l 3.072-9.728q 2.048-3.072 3.84-5.12t 2.816-2.56l 1.024-1.024l 9.728-5.12l 56.832,0 l 146.944-176.128q 5.632-6.144 5.632-12.8l0-98.304 q0-4.096 -1.28-6.144t-2.816-2.56l-1.536,0 q-57.344,0 -72.704-1.536q-5.12,0 -5.12-4.608l0-28.16 l 264.192,0 l0,29.184 q0,1.536 -1.28,2.56t-2.304,1.024l-1.024,0 l-73.728,0 q-4.608,0 -4.608,7.68l0,103.424 q-0.512,1.536 0.768,3.584t 2.816,3.584l 1.536,1.536q 5.632,5.632 135.168,127.488l 68.096,0 q 4.608,0 9.216,3.584l 8.704,9.728q 3.072,3.584 3.072,9.216l0,7.168  q-0.512,1.536 -1.536,2.304t-1.536,0.768l-1.024,0 l-223.232,0 l-3.584-3.072q-0.512-3.072 0.768-6.4t 2.816-4.864l 1.024-2.048l 11.776-11.776l 9.216-3.584l 58.88,0 l-105.984-99.84l-116.736,148.992l 20.992,0 q 6.656-0.512 11.264,2.048l 34.816,10.752q 0.512,0 1.536,0.512t 2.304,2.56t 1.28,4.608l0,7.168 q0,1.536 -1.024,2.56t-2.048,1.024l-1.536,0 l-250.368,0 q-4.096-0.512 -5.12-3.584l0-4.096 zM 609.28,479.488l 94.72-3.584l-42.496-290.304l-31.232,1.536zM 615.936,88.832l 2.048,56.32l 56.32-2.048l-2.048-56.32z" horiz-adv-x="706.048" />
<glyph unicode="&#x61;" d="M 0.512,90.88q 2.56,4.096 8.192,0.512q 128-74.24 278.528-74.24q 100.352,0 198.144,37.376q 2.56,1.024 7.424,3.072t 6.912,3.072q 7.68,3.072 12.032-3.072t-2.816-11.264q-9.216-6.656 -23.552-15.36q-44.032-26.112 -98.304-40.448t-105.984-14.336q-79.872,0 -151.040,27.904t-127.488,78.592q-3.072,2.56 -3.072,5.12q0,1.536 1.024,3.072zM 154.624,236.8q0,35.328 17.408,60.416t 47.616,37.888q 27.648,11.776 68.096,16.896q 13.824,1.536 45.056,4.096l0,8.704 q0,32.768 -7.168,44.032 q-10.752,15.36 -33.792,15.36l-4.096,0 q-16.896-1.536 -29.184-10.752t-15.872-25.6q-2.048-10.24 -10.24-11.776l-58.88,7.168q-8.704,2.048 -8.704,9.216q0,1.536 0.512,3.584q 8.704,45.568 42.752,67.584t 79.616,24.576l 12.8,0 q 58.368,0 91.136-30.208q 5.12-5.12 9.472-11.008t 6.912-10.496t 4.608-13.312t 3.072-12.032t 1.536-14.336t 0.512-13.056l0-15.36 l0-14.336 l0-94.208 q0-13.312 3.84-24.32t 7.424-15.872t 11.776-15.616q 3.072-4.608 3.072-8.192q0-4.096 -4.096-7.168 q-42.496-36.864 -46.080-39.936q-6.144-4.608 -14.848-1.024q-7.168,6.144 -12.544,11.776t-7.68,8.192t-7.424,9.984t-7.168,9.984q-28.672-31.232 -56.32-38.912q-17.408-5.12 -43.008-5.12q-39.424,0 -64.768,24.32t-25.344,68.864zM 242.688,247.040q0-19.968 9.984-32t 26.88-12.032q 1.536,0 4.352,0.512t 3.84,0.512q 21.504,5.632 33.28,27.648q 5.632,9.728 8.448,21.248t 3.072,18.688t 0.256,23.552l0,12.8 q-29.696,0 -45.056-4.096 q-45.056-12.8 -45.056-56.832zM 457.728,82.176q 1.024,2.048 3.072,4.096q 12.8,8.704 24.576,11.776q 19.456,5.12 37.888,5.632q 5.12,0.512 9.728-0.512q 23.040-2.048 27.648-7.68q 2.048-3.072 2.048-9.216l0-3.584 q0-17.92 -9.728-42.24t-27.136-39.168q-2.56-2.048 -4.608-2.048q-1.024,0 -2.048,0.512q-3.072,1.536 -1.536,5.632q 18.944,44.544 18.944,61.952q0,5.632 -2.048,8.192q-5.12,6.144 -28.672,6.144q-8.704,0 -20.48-1.024q-12.8-1.536 -23.552-3.072q-3.072,0 -4.096,1.024t-0.512,2.048q0,0.512 0.512,1.536z" horiz-adv-x="562.688" />
<glyph unicode="&#x66;" d="M 143.36,213.248l0,97.792 l 78.848,0 l0,49.152 q0,53.248 34.56,90.624t 83.712,37.376l 78.336,0 l0-97.792 l-78.336,0 q-7.68,0 -13.824-8.448t-6.144-20.736l0-50.176 l 98.304,0 l0-97.792 l-98.304,0 l0-237.056 l-98.304,0 l0,237.056 l-78.848,0 z" horiz-adv-x="418.304" />
<glyph unicode="&#x64;" d="M-6.144,214.784l 109.568,83.456l-109.568,82.944l 159.232,103.936l 103.936-89.088l 106.496,89.088l 154.624-98.816l-101.376-84.48l 101.376-87.040l-157.184-94.72l-103.936,79.872l-103.936-79.872zM 102.912,86.272l0,29.184 l 48.128-28.16l 103.936,79.36l 0.512-0.512l0-181.76 zM 105.472,299.264l 150.528-94.72l 151.552,100.352l-150.528,86.528zM 255.488-15.616l 0.512,181.76l 1.024,0.512l 103.424-79.36l 51.2,30.72l0-32.256 z" horiz-adv-x="518.656" />
<glyph unicode="&#xe8;" d="M0,235.264q0,52.224 20.48,99.328q 40.448,95.232 135.68,135.68q 47.104,20.48 99.328,20.48t 99.328-20.48q 94.208-39.936 135.68-135.68q 20.48-48.64 20.48-99.328t-20.48-99.328q-41.472-96.256 -135.68-136.704q-47.104-20.48 -99.328-20.48t-99.328,20.48q-95.232,40.96 -135.68,136.704q-20.48,47.104 -20.48,99.328zM 39.936,235.264q0-72.192 43.008-129.024q 42.496-55.808 111.104-79.36l0,40.96 q0,30.72 20.48,44.544q-10.24,0.512 -24.064,3.584q-26.112,4.608 -44.544,16.384 q-46.592,28.16 -46.592,101.888q0,38.4 25.6,65.536q-11.776,30.208 2.56,65.536l 10.24,0 q 5.12,0 12.8-2.56q 19.968-6.144 44.544-22.528q 31.232,8.192 61.44,8.192t 61.952-8.192q 19.968,13.312 37.376,20.48q 16.384,6.144 23.552,5.12l 6.144-0.512q 13.824-35.328 2.56-65.536q 25.6-27.136 25.6-65.536q0-57.344 -28.16-86.528q-15.36-16.384 -40.448-25.6q-20.992-7.68 -46.592-9.728q 20.992-14.848 20.992-44.544l0-40.96 q 66.048,23.552 109.056,80.384q 41.984,56.32 41.984,128 q0,43.52 -16.896,83.968q-16.384,38.912 -46.080,68.608q-28.672,28.672 -68.608,45.568q-40.96,17.408 -83.456,17.408q-41.984,0 -83.968-17.408q-38.4-16.384 -68.608-45.568q-28.672-29.696 -46.080-68.608q-16.896-40.448 -16.896-83.968z" />
<glyph unicode="&#x67;" d="M0,54.528q0-32.256 31.744-55.296t 76.8-23.040t 77.056,23.040t 32,55.296q0,32.768 -32,55.808t-77.056,23.040q-0.512,0 -1.536-0.256t-1.536-0.256q-12.288,11.264 -12.288,24.32t 12.288,27.392q 36.352,2.048 61.44,28.16t 25.088,61.952q0,14.336 -3.584,25.6q 14.336,2.56 22.528,7.168l0,58.88 q-24.576-16.384 -55.808-16.384l-3.584,0 q-23.552,15.872 -51.712,15.872q-38.4,0 -65.536-26.624t-27.136-64.512q0-24.064 12.288-44.544t 32.768-32.768 q-14.336-18.432 -14.336-37.888q0-18.432 13.312-38.4q-23.552-10.752 -37.376-28.16t-13.824-38.4zM 61.952,275.712q0,16.896 11.008,28.928t 25.856,12.032q 15.36,0 26.112-12.032t 10.752-28.928t-10.752-28.928t-26.112-12.032q-14.848,0 -25.856,12.032t-11.008,28.928zM 63.488,54.528q0,13.824 13.056,23.296t 32,9.472t 32.256-9.472t 13.312-23.296q0-13.312 -13.312-23.040t-32.256-9.728t-32,9.728t-13.056,23.040z M 232.96,446.72q0,17.408 12.032,29.44t 29.44,12.032t 29.696-12.032t 12.288-29.44t-12.288-29.696t-29.696-12.288t-29.44,12.288t-12.032,29.696zM 242.688,115.456l0,245.248 l 68.608,0 l0-245.248 l-68.608,0 zM 335.36,308.48l 28.16,0 l0-145.408 l0-0.512 q 2.048-15.36 9.984-26.368t 17.664-16.128t 19.2-8.192t 15.616-3.584l 6.656,0 l 3.584,0 q 13.824,0 24.576,4.096q 11.776,4.096 15.36,8.192l 3.584,4.608l 1.024,50.688q-21.504-6.656 -33.28-6.656q-2.56,0 -4.608,0.512q-11.776,1.536 -13.824,8.192 l-2.048,6.656q0,1.536 -0.512,2.048l0,121.856 l 46.592,0 l0,52.224 l-46.592,0 l0,47.616 l-62.976,0 l0-47.616 l-28.16,0 l0-52.224 z" horiz-adv-x="480.768" />
<glyph unicode="&#x6f;" d="M0,156.928q-0.512,32.256 12.544,59.648t 34.304,45.568t 47.104,32.256t 51.712,22.016t 47.36,13.056t 34.816,6.656l 13.312,1.536l0-62.976 q-29.184-2.048 -53.504-9.984t-39.68-18.688t-27.136-23.296t-17.92-24.576t-9.728-21.76t-4.096-15.872l-1.024-6.144q-1.536-7.68 -1.536-15.36q0-11.264 3.584-21.504q 6.144-17.408 19.456-29.696t 30.208-22.784t 34.816-16.896t 32.768-11.008t 24.064-6.656l 9.728-1.536l0-52.736 q-49.664,5.12 -89.856,17.92 t-64.768,28.928t-42.496,34.56t-26.112,36.096t-12.544,31.744t-4.864,22.784zM 261.12-23.808l0,461.824 l 72.704,50.176l0-472.064 zM 351.232,278.784l 2.56,0 q 19.456-0.512 39.424-7.68q 21.504-8.192 32.768-15.872l 10.752-8.192l-42.496-17.408l 160.256-39.936l0,125.44 l-54.784-31.232q-20.48,22.016 -57.6,35.328t-64.256,15.872l-26.624,2.56l0-58.88 z" horiz-adv-x="554.496" />
<glyph unicode="&#xec;" d="M0-32l0,213.504 l 38.912-0.512l-1.536-171.52l 256.512,0 l0,171.008 l 40.448,0 l0-212.48 l-334.336,0 zM 62.976,80.128l 200.704,0 l0-42.496 l-200.704,0 l0,42.496 zM 63.488,113.408l 4.096,43.52l 201.216-19.456l-4.096-43.52zM 74.24,201.984l 11.776,41.984l 194.56-54.784l-12.288-41.984zM 110.592,304.896l 22.528,37.376l 173.056-104.448l-23.040-37.376zM 196.096,409.856l 35.328,25.6l 117.76-164.352l-35.84-25.6zM 325.12,472.832l 43.008,7.168l 33.28-199.168l-43.008-7.168z" horiz-adv-x="401.408" />
<glyph unicode="&#x62;" d="M 20.176,108.287c 3.637-5.367, 7.562-10.522, 11.75-15.462c 8.367-9.86, 17.798-18.799, 27.997-26.73
	c 21.71-16.858, 46.748-28.949, 72.764-37.462c 30.090-9.864, 61.567-15.126, 93.050-17.745c 36.519-3.040, 73.536-2.996, 109.966,0.83
	c 33.763,3.557, 67.389,10.567, 99.021,23.139c 27.995,11.128, 53.743,27.015, 76.255,47.111c 5.815,5.215, 11.453,10.778, 16.089,17.105
	c 3.92,5.351, 7.062,11.262, 7.628,17.969c 0.64,7.864-0.652,15.861-2.205,23.532c-1.721,8.502-3.988,16.882-6.129,25.283
	c-0.792,3.062-1.549,6.125-2.238,9.198c-8.261,36.409-20.869,71.853-37.995,105.015c-14.515,28.092-32.423,54.619-53.212,78.432
	c-19.417,22.243-42.006,41.691-67.951,55.869c-13.773,7.515-28.344,13.516-43.352,18.025c-8.11,2.439-16.354,4.443-24.665,6.063
	c-2.132,0.42-4.285,0.959-6.46,0.959c-2.738,0-5.484,0-8.234,0c-5.289,0-10.572,0-15.854,0c-2.411,0-4.845,0.112-7.246-0.179
	c-2.213-0.264-4.422-0.583-6.635-0.943c-4.209-0.684-8.396-1.526-12.554-2.524c-8.24-1.974-16.343-4.565-24.234-7.661
	c-15.776-6.202-30.726-14.459-44.67-24.076c-27.248-18.793-50.914-42.707-70.838-69.1c-21.121-27.995-37.993-59.123-51.030-91.661
	c-13.858-34.604-23.426-70.867-29.343-107.668C 19.102,130.873, 18.005,125.965, 18.005,121.18c0-2.568,0-5.149,0-7.701
	c0-1.239-0.027-1.895, 0.647-2.921C 19.161,109.808, 19.654,109.055, 20.176,108.287z M 53.86,131.107c 0.434,2.434, 0.947,4.857, 1.508,7.262
	c 1.074,4.516, 2.367,8.979, 3.878,13.381c 5.788,16.92, 14.534,32.624, 23.92,47.777c 4.67,7.52, 9.442,14.964, 14.189,22.422
	c 4.848,7.621, 9.791,15.198, 15.358,22.309c 9.027,11.554, 20.134,24.016, 34.531,28.665c 20.232,6.533, 35.366-14.533, 47.071-27.532
	c 6.66-7.38, 13.832-15.147, 23.005-19.36c 4.226-1.941, 8.833-2.94, 13.485-2.653c 6.781,0.433, 12.796,5.087, 17.838,9.278
	c 13.816,11.464, 25.089,25.949, 35.848,40.217c 11.784,15.625, 23.162,31.569, 36.633,45.797c 5.523,5.832, 11.407,13.566, 19.326,16.146
	c 3.612,1.172, 7.55,0.813, 10.993-0.768c 1.884-0.87, 3.599-2.092, 5.098-3.539c 1.694-1.643, 3.708-2.933, 5.596-4.357
	c 14.453-10.942, 27.824-23.298, 40.459-36.297c 10.992-11.307, 21.429-23.129, 31.423-35.343c 9.73-11.924, 19.102-24.072, 27.155-37.24
	c 9.792-16.039, 18.070-32.908, 27.191-49.329c 8.323-14.976, 16.735-32.293, 8.429-49.184c-0.438-0.892-0.914-1.784-1.425-2.637
	c-14.744-24.957-41.362-40.491-67.629-50.664c-31.649-12.238-65.719-18.070-99.436-20.426c-34.856-2.445-70.135-2.332-104.932,0.931
	c-31.446,2.951-63.113,8.547-92.699,19.977c-24.729,9.55-48.567,23.668-65.109,44.855c-3.858,4.947-7.28,10.229-10.193,15.793
	c-0.345,0.662-0.686,1.341-1.032,2.024C 53.848,129.6, 53.662,130.004, 53.86,131.107z" data-tags="basecamp" />
<glyph unicode="&#x78;" d="M 536.63,312.038c-53.937,0-100.772-30.323-124.439-74.842c-23.67,44.521-70.505,74.842-124.439,74.842
	c-31.7,0-60.954-10.476-84.495-28.152L 203.261,402.537 l-0.015,0 c-0.328,15.291-12.803,27.594-28.175,27.594s-27.848-12.303-28.173-27.594l-0.015,0 
	l0-233.702 l 0.059,0 c 1.252-76.713, 63.793-138.532, 140.808-138.532c 53.937,0, 100.769,30.328, 124.439,74.844
	c 23.67-44.521, 70.505-74.844, 124.439-74.844c 77.798,0, 140.864,63.068, 140.864,140.864C 677.494,248.97, 614.426,312.038, 536.63,312.038z
	 M 287.747,86.679c-46.666,0-84.495,37.832-84.495,84.495c0,46.666, 37.829,84.495, 84.495,84.495s 84.495-37.832, 84.495-84.495
	S 334.413,86.679, 287.747,86.679z M 536.63,86.679c-46.666,0-84.493,37.832-84.493,84.495c0,46.666, 37.829,84.495, 84.493,84.495
	c 46.661,0, 84.495-37.832, 84.495-84.495C 621.12,124.503, 583.291,86.679, 536.63,86.679zM 866.985,74.632l-72.146,96.433l 72.146,96.433l-0.018,0.010c 8.922,12.421, 6.339,29.752-5.955,38.984
	c-12.288,9.229-29.652,6.886-39.094-5.146l-0.013,0.005l-62.264-83.233l-62.262,83.233l-0.013-0.013
	c-9.446,12.035-26.808,14.38-39.101,5.148c-12.291-9.231-14.876-26.563-5.947-38.981l-0.015-0.005l 72.143-96.433l-72.143-96.433
	l 0.015-0.008c-8.929-12.419-6.344-29.75, 5.947-38.979c 12.293-9.234, 29.655-6.886, 39.101,5.146l 0.013-0.013l 62.262,83.231l 62.264-83.231
	l 0.013,0.005c 9.446-12.032, 26.806-14.374, 39.094-5.146c 12.293,9.234, 14.876,26.563, 5.955,38.984L 866.985,74.632z" horiz-adv-x="1024" data-tags="Box_Logo_white_vector (1)" />
<glyph unicode="&#x7a;" d="M 0,407.014  m0,0, 210.020,28.601 0.094-202.581 -209.92-1.195 z m 209.92-197.32 0.165-202.758 -209.92,28.86 -0.012,175.257 z m 25.459,229.664 278.469,40.642 0-244.389 -278.469-2.213 z m 278.534-231.571 -0.065-243.288 -278.469,39.3 -0.388,204.441 z" data-tags="Windows_logo_-_2012" />
<glyph unicode="&#x21;" d="M 12.124,408.945c 2.048,12.093, 13.435,21.796, 25.728,21.76c 10.696,0.512, 21.345-6.2, 25.411-16.128
	c 29.148-73.508, 58.214-147.046, 87.424-220.529c 0.819,1.039, 1.572,2.145, 1.987,3.395c 27.423,71.88, 55.276,143.596, 82.043,215.706
	c 5.366,11.684, 20.285,17.684, 32.195,12.667c 12.283-4.372, 19.328-19.144, 15.084-31.457c-39.276-96.701-78.065-193.613-116.992-290.468
	c-7.741-19.395-15.805-39.112-28.918-55.598c-9.523-12.032-22.431-21.443-37.1-26.138c-19.062-6.077-39.557-6.011-59.203-3.251
	c-11.837,1.828-20.434,14.408-18.222,26.132c 1.285,8.668, 8.033,16.195, 16.476,18.504c 6.518,1.966, 13.307-0.010, 19.937,0.164
	c 12.401-0.527, 25.528,2.212, 35.2,10.383c 10.742,8.965, 16.742,22.057, 21.76,34.806c 2.263,6.344, 5.484,12.273, 7.992,18.504
	c-0.666,2.749-2.017,5.258-3.031,7.869C 84.628,220.918, 49.193,306.478, 14.239,392.228C 11.924,397.425, 10.88,403.333, 12.124,408.945zM 412.421,378.993c 11.29,3.671, 24.622-2.273, 29.558-13.046c 5.268-10.317, 1.94-24.371-7.813-30.776
	c-24.351-13.245-49.27-25.482-74.752-36.424c-13.681-5.816-27.535-11.336-41.866-15.386c-6.564-1.731-13.348-3.466-20.188-2.683
	c-1.526,0.287-3.743,0.845-3.86,2.714c-0.205,3.369, 2.345,5.996, 4.244,8.484c 8.397,9.661, 18.35,17.797, 28.211,25.902
	c 17.546,14.136, 35.753,27.459, 54.205,40.392C 390.769,365.292, 401.065,373.048, 412.421,378.993zM 459.028,243.359c 7.357,0.353, 14.7,1.638, 22.067,1.065c 12.206-2.473, 21.038-15.206, 19.118-27.5c-1.285-11.663-12.073-21.898-24.018-21.33
	c-26.184,0.353-52.372,1.28-78.459,3.758c-15.529,1.48-31.068,3.328-46.3,6.799c-5.775,1.418-11.653,2.949-16.87,5.878
	c-2.104,1.096-3.661,2.908-4.838,4.915c 2.109,3.973, 6.61,5.453, 10.547,6.938c 11.535,3.958, 23.562,6.19, 35.512,8.448
	C 403.374,237.204, 431.176,240.645, 459.028,243.359zM 295.424,156.431c 3.492,1.265, 7.322,0.773, 10.921,0.333c 12.534-2.099, 24.525-6.554, 36.367-11.028
	c 30.474-11.981, 59.94-26.358, 88.806-41.774c 8.576-3.871, 13.46-13.66, 12.908-22.856c-0.445-9.708-7.188-18.755-16.369-21.996
	c-6.339-2.278-13.855-2.258-19.589,1.603c-19.062,11.781-37.228,24.965-55.306,38.185c-16.599,12.416-33.162,24.996-48.256,39.24
	c-3.871,3.845-7.798,7.741-10.588,12.467C 293.217,152.402, 292.787,155.802, 295.424,156.431z" data-tags="yammer" />
<glyph unicode="&#x30;" d="M 297.385,161.249l-83.231,0 l-11.561-39.163L 127.734,122.086 
		l 89.175,237.245l 79.974,0 l 89.149-237.245L 309.253,122.086 L 297.385,161.249z M 282.179,212.541l-26.189,85.294L 230.077,212.541L 282.179,212.541 zM 513.725,220.887c0-143.309-116.178-259.492-259.492-259.492
	S -5.258,77.568, -5.258,220.887c0,143.314, 116.178,259.492, 259.492,259.492C 397.548,480.379, 513.725,364.196, 513.725,220.887z M 256.328,414.065
	c-107.443,0-194.55-87.107-194.55-194.55s 87.107-194.55, 194.55-194.55s 194.55,87.107, 194.55,194.55S 363.781,414.065, 256.328,414.065z M 255.882,395.827
	C 158.756,395.827, 80.026,317.087, 80.026,219.96s 78.74-175.867, 175.867-175.867s 175.867,78.74, 175.867,175.867S 353.014,395.827, 255.882,395.827z" data-tags="auth0" />
<glyph unicode="&#x22;" d="M 489.999,424.617c-31.16,40.858-83.159,53.279-136.806,36.188c-17.459-5.581-38.364-7.7-56.125-3.942c-140.257,29.819-257.188-41.759-292.884-180.869
				c-1.823-7.035-6.666-13.332-10.127-19.937c0-18.422,0-36.854,0-55.276c 3.82-9.754, 8.847-19.21, 11.274-29.276c 29.092-119.649, 134.81-192.266, 262.461-179.717
				c 112.558,11.028, 200.448,111.165, 204.575,229.304c 0.788,22.487, 9.636,46.735, 21.156,66.376C 520.98,334.423, 521.518,383.34, 489.999,424.617z M 291.133,27.837
				c-85.166-24.668-179.231,11.269-228.516,87.342c-50.248,77.655-44.79,172.022, 14.060,243.487c 54.252,65.823, 145.531,91.771, 219.607,61.102
				c-1.331-24.484-7.639-35.942-38.554-31.826c-94.925,12.851-172.145-51.098-185.18-148.869c-10.301-77.527, 57.467-162.324, 138.506-173.23
				c 93.471-12.544, 171.172,47.099, 185.723,142.566c 4.547,29.645, 4.547,29.645, 43.336,29.030C 438.902,130.698, 384.108,54.804, 291.133,27.837zM 387.794,244.029c-56.264,0.307-102.589,45.875-102.968,101.32
			c-0.369,53.412, 48.476,103.849, 101.683,105.027c 54.139,1.188, 107.018-51.886, 105.672-106.061C 490.778,288.456, 444.206,243.707, 387.794,244.029z
			 M 376.218,423.496c-47.949-8.812-68.465-36.915-68.506-77.056c-0.056-42.148, 22.129-70.405, 68.506-79.539
			C 376.218,319.37, 376.218,369.029, 376.218,423.496z M 401.014,269.409c 48.118,12.093, 72.074,41.185, 69.074,81.828
			c-2.903,39.209-28.764,64.404-69.074,67.072C 401.014,368.824, 401.014,319.365, 401.014,269.409z" data-tags="okta2" />
<glyph unicode="&#x75;" d="M 1.024,301.312q 2.048,18.432 7.936,32.256t 13.056,20.48t 14.336,10.752t 11.776,4.608l 4.608,1.024l 4.096,0 q 22.016,0 39.424-18.432q 19.456-20.48 20.992-39.936q 1.536-8.192 1.536-16.896l0-3.072 q0-10.24 -2.816-27.136t-14.336-29.44t-30.464-16.64q-6.656-1.536 -13.312-1.536q-11.776,0 -22.016,5.12q-15.36,7.68 -23.040,22.016t-10.752,29.696q-2.048,8.704 -2.048,16.384q0,5.632 1.024,10.752zM 33.792,51.968q-2.048,9.216 -2.048,18.432q0,14.336 5.12,28.16q 8.192,22.528 19.712,34.816t 24.832,23.040l 13.312,10.752 q 1.024,1.024 13.568,11.52t 27.392,26.368t 25.088,33.792q 9.216,15.872 25.6,27.136q 16.896,11.264 36.864,14.336q 4.608,0.512 8.704,0.512q 15.872,0 33.792-9.216q 22.528-11.776 40.448-39.424q 4.096-6.144 12.032-16.128t 34.048-36.864t 54.272-48.896q 13.312-10.24 20.224-25.344t 6.912-29.184t-2.048-26.624t-4.608-20.224l-3.072-7.68q-1.024-3.072 -3.84-7.68t-14.080-14.848t-25.6-16.128t-40.448-5.888t-57.344,10.24q-18.432,6.144 -40.448,6.656l-7.168,0  q-16.896,0 -28.16-2.048l-12.8-2.048q-5.12-1.024 -13.824-2.56q-9.216-1.536 -33.792-4.096q-12.288-1.024 -22.528-1.28t-18.432,1.28l-1.536,0 q-23.552,0 -40.96,16.896q-17.92,17.408 -23.552,34.816zM 106.496,105.216q-1.024-7.168 -1.024-13.824q0-16.384 6.144-31.232q 11.264-22.016 40.448-28.16l 65.024,0 l0,157.184 l-29.184,0.512l0-42.496 l-34.816,0 q-15.36,0 -27.136-10.496t-15.36-21.248zM 118.784,409.344q0,32.768 16.128,55.808t 39.168,23.040t 39.168-23.040t 16.128-55.808 t-16.128-55.808t-39.168-23.040t-39.168,23.040t-16.128,55.808zM 137.216,80.128q-1.024,4.096 -1.024,8.192q0,7.168 3.072,15.872q 5.12,13.312 19.968,17.92l 28.16,0 l0-64 l-26.112,0 q-8.192,0 -14.080,5.376t-7.936,11.008zM 232.96,60.672q0-9.216 7.68-16.128t 15.36-9.472l 7.68-2.56l 74.752,0 l0,111.104 l-32.256,0 l0-83.456 l-30.72,0 q-4.608,0.512 -7.424,3.072t-3.84,4.608l-0.512,2.048l0,74.24 l-30.72-0.512l0-82.944 zM 260.096,404.736q 2.56,24.576 25.088,49.664q 18.944,20.992 36.864,20.992 q 3.072,0 6.656-0.512q 22.016-5.12 37.888-29.696q 12.8-19.968 12.8-39.424q0-4.608 -0.512-9.216q-4.608-28.16 -24.576-51.712q-17.408-19.968 -40.96-20.48q-3.584,0 -7.168,0.512q-28.672,4.096 -38.912,26.112q-7.68,16.384 -8.192,38.4q0,7.168 1.024,15.36zM 351.232,256.256q0,76.8 55.296,76.8q 17.408,0 30.464-7.424t 19.456-18.432t 9.472-20.736t 3.072-16.896l0-7.168 l0-5.632 l0-4.608 q0-3.584 -0.512-11.52t-2.048-13.056t-3.84-12.288t-6.656-12.032 t-9.728-9.472t-13.568-6.912t-17.92-2.304l-3.072,0 q-19.456,0 -32.256,5.632q-13.824,6.144 -19.456,18.688t-7.168,22.528t-1.536,24.832z" horiz-adv-x="468.992" />
<glyph unicode="&#x26;" d="M 339.758,463.985L 270.392,463.985 c-68.157,0-125.962-53.238-125.962-156.585
	c0-62.003, 27.996-107.72, 77.88-130.268L 129.219,4.265c-3.041-5.647,0-10.015, 4.864-10.015l 43.203,0 c 3.651,0, 6.088,1.244, 7.306,4.372
	l 84.582,169.743l 30.428,0 L 299.602-1.382 c0-1.869, 1.823-4.372, 4.244-4.372l 37.74,0 c 3.651,0, 4.869,1.869, 4.869,5.002L 346.455,457.718 
	C 346.455,462.111, 344.013,463.985, 339.758,463.985z M 299.602,208.44l-25.559,0 c-40.161,0-79.104,30.070-79.104,105.226
	c0,78.305, 36.506,110.239, 73.62,110.239l 31.037,0 L 299.597,208.44 z" data-tags="yandex" />
<glyph unicode="&#x23;" d="M 323.123,125.389c-0.015,19.61, 15.329,34.888, 35.092,34.954
	c 19.825,0.067, 36.439-16.138, 36.132-35.236c-0.312-19.118-16.43-34.591-36.019-34.57C 338.56,90.563, 323.139,105.825, 323.123,125.389zM 496.077,225.285c-0.056-19.553-15.677-34.898-35.359-34.739
	c-19.333,0.159-35.364,15.923-35.625,35.031c-0.261,19.108, 16.215,34.857, 36.326,34.714C 481.608,260.152, 496.133,245.478, 496.077,225.285zM 323.128,325.617c-0.082,19.845, 15.749,35.482, 35.712,35.272
	c 19.22-0.205, 35.676-16.492, 35.533-35.164c-0.143-18.76-16.517-34.724-35.83-34.949C 339.215,290.545, 323.21,306.294, 323.128,325.617zM 15.918,225.475c-0.020,20.086, 14.643,34.734, 34.867,34.816
	c 19.794,0.087, 35.845-15.063, 36.127-34.094c 0.282-19.195-16.148-35.574-35.748-35.651C 31.852,190.469, 15.944,206.239, 15.918,225.475zM 323.128,225.654c 0.015,19.794, 15.053,34.611, 35.154,34.637
	c 19.758,0.026, 35.896-15.288, 36.091-34.248c 0.195-18.995-16.527-35.456-36.050-35.502C 339.128,190.5, 323.108,206.474, 323.128,225.654zM 188.872,224.988c-0.138-18.816-15.974-34.381-35.036-34.452
	c-19.456-0.072-36.557,16.645-36.168,35.354c 0.404,19.543, 16.502,34.621, 36.731,34.396C 174.29,260.065, 189.020,244.987, 188.872,224.988zM 255.729,260.291c 20.352,0.087, 36.035-15.171, 35.942-34.954
	c-0.097-19.005-16.358-34.831-35.738-34.775c-19.405,0.056-35.436,15.811-35.584,34.97C 220.196,244.833, 235.848,260.209, 255.729,260.291zM 256.138,391.798c-19.144-0.046-35.343,15.416-35.471,33.848
	c-0.128,18.893, 16.159,35.159, 35.272,35.22c 18.77,0.056, 35.241-15.862, 35.415-34.227C 291.538,407.363, 275.855,391.844, 256.138,391.798zM 255.852-9.098c-19.343,0.041-35.169,15.36-35.18,34.053
	c-0.005,18.924, 16.44,35.057, 35.538,34.847c 19.2-0.22, 35.169-15.846, 35.144-34.391C 291.328,6.098, 275.651-9.139, 255.852-9.098zM 291.354,125.522c 0.046-18.688-15.887-34.437-35.057-34.647
	c-19.139-0.215-35.84,16.128-35.651,34.872c 0.189,18.509, 16.609,34.365, 35.492,34.263C 275.292,159.908, 291.308,144.22, 291.354,125.522zM 119.030,125.128c-0.046,20.214, 14.653,34.954, 34.796,34.898
	c 19.159-0.051, 34.76-15.621, 34.739-34.668c-0.026-19.026-15.718-34.55-34.888-34.514C 133.796,90.89, 119.071,105.462, 119.030,125.128zM 255.882,359.931c 19.82,0.031, 35.261-14.674, 35.456-33.772
	c 0.195-19.369-15.386-34.381-35.61-34.324c-19.707,0.061-35.128,15.073-35.052,34.12C 220.759,345.088, 236.109,359.905, 255.882,359.931zM 153.866,291.84c-19.584-0.051-35.308,14.751-35.717,33.613
	c-0.404,18.857, 15.77,34.504, 35.625,34.473c 19.988-0.031, 34.775-14.484, 34.785-34.002C 188.57,306.401, 173.804,291.891, 153.866,291.84z" data-tags="fitbit" />
<glyph unicode="&#x72;" d="M 171.126,353.674c 23.962-12.959, 44.728-19.937, 59.628-33.408
	c 16.020-14.484, 24.909-13.005, 40.632-0.364c 15.882,12.78, 35.963,20.352, 58.936,32.748c-2.222-67.471, 12.109-129.526-30.945-183.777
	c-33.94-42.772-53.642-45.87-89.057-5.693c-11.704,13.292-21.484,29.338-28.165,45.757C 164.029,253.404, 173.655,300.083, 171.126,353.674zM 41.052,131.901C-22.318,211.466, 21.197,331.505, 117.361,346.399
	C 130.13,252.329, 118.769,170.685, 41.052,131.901zM 385.49,347.254C 479.078,326.339, 521.646,222.874, 472.412,143.718
	c-7.26-11.663-12.964-13.225-24.069-5.622c-35.261,24.141-56.94,58.030-61.957,99.169C 382.054,272.891, 385.49,309.453, 385.49,347.254zM 357.376,161.597c 17.618-21.427, 36.787-44.718, 56.561-68.756
	c-36.547-16.041-73.851-17.009-112.046,0.031C 321.961,117.75, 340.925,141.24, 357.376,161.597zM 201.728,92.708c-36.47-16.343-73.682-15.928-111.442-0.108
	c 19.594,24.238, 38.298,47.365, 55.588,68.751C 162.555,140.856, 181.033,118.129, 201.728,92.708z" data-tags="renren" />
<glyph unicode="&#x20;" horiz-adv-x="256" />
</font>
</defs>
</svg>
